<svg xmlns="http://www.w3.org/2000/svg" fill="none" viewBox="0 0 48 48" height="48" width="48"><g id="outgoging-video-call"><path id="Union" fill="#333" d="M18 7.5c-4.59 0-8.241.383-10.756.77-3.03.464-5.193 2.934-5.416 5.93-.17 2.279-.328 5.545-.328 9.8 0 4.255.159 7.521.328 9.8.223 2.996 2.386 5.466 5.416 5.93 2.515.387 6.166.77 10.756.77s8.242-.383 10.757-.77c3.03-.464 5.193-2.934 5.416-5.93.042-.572.084-1.206.123-1.902 1.809 1.084 3.965 2.209 6.3 3.087 2.518.947 5.103-.729 5.433-3.318.239-1.882.471-4.52.471-7.667 0-3.147-.232-5.785-.471-7.667-.33-2.59-2.915-4.265-5.434-3.318-2.334.878-4.49 2.003-6.3 3.087-.038-.696-.08-1.33-.122-1.902-.223-2.996-2.386-5.466-5.416-5.93C26.242 7.882 22.591 7.5 18 7.5Z"></path><path id="Subtract" fill="white" stroke="#333" stroke-width="2" fill-rule="evenodd" d="M23.396 28.5c1.467 1.327 3.363.579 3.482-1.396.06-.999.106-2.218.12-3.69.026-2.787-.201-4.64-.439-5.804a2.73 2.73 0 0 0-2.17-2.17c-1.163-.237-3.017-.464-5.802-.438a73.41 73.41 0 0 0-3.69.12c-1.975.119-2.724 2.016-1.396 3.482a113.65 113.65 0 0 0 2.54 2.704 206.858 206.858 0 0 0-5.619 6.504 2.474 2.474 0 0 0 .167 3.328l.27.27a2.474 2.474 0 0 0 3.329.168 206.634 206.634 0 0 0 6.503-5.619 115.065 115.065 0 0 0 2.706 2.54Z" clip-rule="evenodd"></path></g></svg>