<svg width="49" height="48" viewBox="0 0 49 48" fill="none" xmlns="http://www.w3.org/2000/svg">
<path d="M24.9646 46.5C17.3328 46.5 12.0163 46.0149 8.81768 45.5885C5.95594 45.207 3.74916 43.0345 3.33872 40.1704C2.92151 37.2592 2.46457 32.6636 2.46457 26.5C2.46457 20.3364 2.92151 15.7408 3.33872 12.8296C3.74916 9.96553 5.95594 7.79296 8.81769 7.4115C12.0163 6.98514 17.3328 6.5 24.9646 6.5C32.5964 6.5 37.9129 6.98514 41.1115 7.4115C43.9732 7.79296 46.18 9.96553 46.5905 12.8296C47.0077 15.7408 47.4646 20.3364 47.4646 26.5C47.4646 32.6636 47.0077 37.2592 46.5905 40.1704C46.18 43.0345 43.9732 45.207 41.1115 45.5885C37.9129 46.0149 32.5964 46.5 24.9646 46.5Z" fill="#333"/>
<path d="M34.4646 14.5176C33.9608 14.5176 33.5176 14.504 33.1282 14.4811C30.8587 14.3478 29.5812 12.4787 29.5105 10.5634C29.4844 9.85459 29.4646 8.99537 29.4646 8.01758C29.4646 7.03978 29.4844 6.18057 29.5105 5.47174C29.5812 3.55642 30.8587 1.68737 33.1282 1.55402C33.5176 1.53114 33.9608 1.51758 34.4646 1.51758C34.9684 1.51758 35.4116 1.53114 35.801 1.55402C38.0705 1.68737 39.348 3.55642 39.4187 5.47174C39.4448 6.18057 39.4646 7.03978 39.4646 8.01758C39.4646 8.99537 39.4448 9.85459 39.4187 10.5634C39.348 12.4787 38.0705 14.3478 35.801 14.4811C35.4116 14.504 34.9684 14.5176 34.4646 14.5176Z" fill="#333"/>
<path d="M15.4646 14.5176C14.9608 14.5176 14.5176 14.504 14.1282 14.4811C11.8587 14.3478 10.5812 12.4787 10.5105 10.5634C10.4843 9.85459 10.4646 8.99537 10.4646 8.01758C10.4646 7.03978 10.4843 6.18057 10.5105 5.47174C10.5812 3.55642 11.8587 1.68737 14.1282 1.55402C14.5176 1.53114 14.9608 1.51758 15.4646 1.51758C15.9684 1.51758 16.4116 1.53114 16.801 1.55402C19.0705 1.68737 20.348 3.55642 20.4187 5.47174C20.4448 6.18057 20.4646 7.03978 20.4646 8.01758C20.4646 8.99537 20.4448 9.85459 20.4187 10.5634C20.348 12.4787 19.0705 14.3478 16.801 14.4811C16.4116 14.504 15.9684 14.5176 15.4646 14.5176Z" fill="#333"/>
<path fill-rule="evenodd" clip-rule="evenodd" d="M28.7713 23.3685L26.4601 18.8917C25.8463 17.7028 24.1537 17.7028 23.5399 18.8917L21.2286 23.3685L16.3285 24.338C15.0759 24.5858 14.5696 26.1104 15.4232 27.0641L18.8978 30.9466L18.2596 36.1421C18.0989 37.4503 19.4527 38.4117 20.6266 37.823L25 35.6299L29.3734 37.823C30.5473 38.4117 31.901 37.4503 31.7404 36.1421L31.1022 30.9466L34.5768 27.0641C35.4305 26.1104 34.9241 24.5858 33.6715 24.338L28.7713 23.3685Z" fill="white" stroke="#333" stroke-width="2"/>
</svg>
