<svg xmlns="http://www.w3.org/2000/svg" fill="none" viewBox="0 0 48 48" height="150" width="150"><g id="mail-send-email-message-circle--send-email-paper-airplane-deliver"><path id="Union" fill="#333" d="M.5 24C.5 36.979 11.021 47.5 24 47.5S47.5 36.979 47.5 24 36.979.5 24 .5.5 11.021.5 24Z"></path><path id="Subtract" fill="white" stroke="#333" stroke-width="1.5" fill-rule="evenodd" d="M15.579 10.158c-1.514-.53-2.878.89-2.301 2.386a121.18 121.18 0 0 0 3.317 7.73 3.872 3.872 0 0 0 2.453 2.066L24.856 24l-5.808 1.66a3.872 3.872 0 0 0-2.453 2.065 121.148 121.148 0 0 0-3.317 7.731c-.577 1.496.787 2.915 2.3 2.386 4.962-1.735 14.328-5.47 23.226-11.54a2.774 2.774 0 0 0 0-4.605c-8.898-6.07-18.264-9.804-23.226-11.539Z" clip-rule="evenodd"></path></g></svg>