<svg xmlns="http://www.w3.org/2000/svg" fill="none" viewBox="0 0 48 48" height="48" width="48"><g id="table-lamp-3--lighting-light-incandescent-bulb-lights-table-lamp"><path id="Union" fill="white" stroke="#333" stroke-width="2" d="M21 24.5a1.5 1.5 0 0 0-1.495 1.382l-.894 11.287a.5.5 0 0 1-.346.436l-4.823 1.543a4.232 4.232 0 0 0-2.942 4.03 3.321 3.321 0 0 0 3.321 3.322h20.393a3.286 3.286 0 0 0 3.286-3.286c0-1.8-1.153-3.398-2.862-3.965l-4.906-1.63a.5.5 0 0 1-.341-.435l-.896-11.302A1.5 1.5 0 0 0 27 24.5h-6Z"></path><path id="Union_2" fill="#333" d="M46.5 24.913C46.5 12.043 36.486 1.5 24 1.5S1.5 12.043 1.5 24.913c0 2.22 1.61 4.15 3.869 4.436C8.908 29.8 15.751 30.5 24 30.5s15.092-.701 18.63-1.15c2.259-.288 3.87-2.217 3.87-4.437Z"></path></g></svg>