<svg width="49" height="48" viewBox="0 0 49 48" fill="none" xmlns="http://www.w3.org/2000/svg">
<path d="M25 40C28.9168 40 32.5218 39.7421 35.4558 39.4292C40.5734 38.8835 44.5439 34.5629 43.939 29.32C43.1386 22.3833 40.7813 15.6576 37.5093 10.6265C34.2845 5.66774 29.9183 2 25 2C20.0816 2 15.7155 5.66774 12.4907 10.6265C9.21869 15.6576 6.86143 22.3833 6.06102 29.32C5.45605 34.5629 9.42657 38.8835 14.5443 39.4292C17.4782 39.7421 21.0832 40 25 40Z" fill="#333"/>
<path d="M27.0357 19.344C26.9934 18.8879 26.8415 18.4291 26.4217 18.2459C26.1178 18.1133 25.6559 18 24.9646 18C24.2732 18 23.8113 18.1133 23.5074 18.2459C23.0876 18.4291 22.9358 18.8879 22.8934 19.344C22.7779 20.5884 22.5554 23.5691 22.4859 28.6284C22.38 28.5222 22.2718 28.4139 22.1613 28.3033C20.7333 26.8754 19.671 25.8423 18.9437 25.1462C18.1879 24.4229 17.0995 24.225 16.3369 24.941C16.2764 24.9978 16.2143 25.0578 16.1508 25.1213C16.0874 25.1848 16.0273 25.2468 15.9705 25.3073C15.2545 26.07 15.4525 27.1584 16.1757 27.9141C16.8718 28.6415 17.9049 29.7038 19.3328 31.1317C20.6929 32.4918 21.7213 33.4937 22.4445 34.1874C22.3637 38.8356 22.0553 41.8623 21.8307 43.5H15.9646C15.1362 43.5 14.4646 44.1716 14.4646 45C14.4646 45.8284 15.1362 46.5 15.9646 46.5H33.9646C34.793 46.5 35.4646 45.8284 35.4646 45C35.4646 44.1716 34.793 43.5 33.9646 43.5H28.0985C27.8379 41.6001 27.4646 37.8309 27.4646 31.8293C27.4646 30.5264 27.4546 29.3288 27.4374 28.2326C28.1628 27.5375 29.2063 26.5217 30.5963 25.1317C32.0242 23.7038 33.0573 22.6415 33.7534 21.9141C34.4767 21.1584 34.6746 20.07 33.9586 19.3073C33.9018 19.2468 33.8418 19.1848 33.7783 19.1213C33.7148 19.0578 33.6528 18.9978 33.5923 18.941C32.8296 18.225 31.7412 18.4229 30.9855 19.1462C30.2581 19.8423 29.1958 20.8754 27.7679 22.3033C27.596 22.4752 27.4298 22.6418 27.2692 22.8032C27.187 21.1356 27.0965 19.9991 27.0357 19.344Z" fill="white" stroke="#333" stroke-width="2"/>
</svg>
