<svg xmlns="http://www.w3.org/2000/svg" fill="none" viewBox="0 0 48 48" height="48" width="48"><g id="youtube--youtube-clip-social-video"><path id="Union" fill="white" stroke="#333" stroke-width="2" d="M24 41.5c-7.423 0-12.616-.213-15.875-.416-3.236-.201-5.868-2.602-6.174-5.9C1.716 32.657 1.5 28.98 1.5 24c0-4.98.216-8.658.45-11.183.307-3.299 2.939-5.7 6.175-5.901C11.384 6.713 16.577 6.5 24 6.5s12.616.213 15.875.416c3.236.201 5.868 2.602 6.174 5.9.235 2.526.451 6.204.451 11.184 0 4.98-.216 8.658-.45 11.183-.307 3.299-2.939 5.7-6.175 5.901-3.259.203-8.452.416-15.875.416Z"></path><path id="Union_2" fill="#2859c5" d="M20.939 16.324c-.953-.369-1.908-.273-2.665.198-.754.47-1.272 1.284-1.416 2.28A36.495 36.495 0 0 0 16.5 24c0 2.104.165 3.86.358 5.197.144.996.662 1.811 1.416 2.28.757.472 1.712.567 2.665.199 1.165-.451 2.725-1.15 4.766-2.235 1.952-1.037 3.461-1.957 4.603-2.72 1.008-.674 1.541-1.683 1.541-2.721s-.533-2.048-1.54-2.721c-1.143-.764-2.652-1.684-4.604-2.72-2.04-1.085-3.6-1.784-4.766-2.235Z"></path></g></svg>