<?xml version="1.0" encoding="UTF-8"?>
<svg id="_레이어_2" data-name="레이어 2" xmlns="http://www.w3.org/2000/svg" viewBox="0 0 264.67 275.54">
  <defs>
    <style>
      .cls-1 {
        fill: #fff;
      }
    </style>
  </defs>
  <g id="_레이어_1-2" data-name="레이어 1">
    <g>
      <g>
        <g>
          <path class="cls-1" d="m215.66,102.8c-7.58,7.84-15.22,15.73-24.17,21.98-3.96,2.76-6.3,3.26-10.52.82-4.04-2.34-10.75-7.97-15.25-9.33l-8.28,11.08c7.95,5.22,15.89,10.43,23.84,15.65,1.16.76,2.41,1.55,3.8,1.55,1.24,0,2.38-.65,3.45-1.28,15.07-8.99,24.02-18.41,35.19-31.95"/>
          <path d="m214.6,101.74c-6.21,6.42-12.44,12.87-19.44,18.44-1.78,1.42-3.6,2.83-5.53,4.04-1.39.88-2.94,1.67-4.64,1.4s-3.19-1.24-4.6-2.15-2.85-1.94-4.27-2.93c-3.11-2.17-6.34-4.56-10-5.72-.69-.22-1.3.16-1.69.69-2.76,3.69-5.52,7.39-8.28,11.08-.5.67-.08,1.65.54,2.05l16.44,10.79c2.7,1.77,5.35,3.63,8.1,5.31,1.05.64,2.2,1.19,3.43,1.28,1.54.11,2.95-.51,4.26-1.25,8.85-5.06,16.89-11.6,23.98-18.91,4.17-4.3,8.06-8.87,11.87-13.49,1.22-1.48-.89-3.61-2.12-2.12-6.26,7.59-12.77,15.03-20.3,21.4-3.74,3.16-7.72,6.04-11.87,8.65-2.05,1.29-4.51,3.52-7.01,2.27-2.66-1.32-5.12-3.29-7.6-4.92-5.89-3.87-11.78-7.73-17.67-11.6l.54,2.05c2.76-3.69,5.52-7.39,8.28-11.08l-1.69.69c3.33,1.06,6.3,3.34,9.13,5.31s6.02,4.71,9.57,5.45c4.1.86,7.52-1.82,10.61-4.14,3.74-2.8,7.27-5.85,10.67-9.05,3.92-3.69,7.67-7.56,11.41-11.43,1.34-1.39-.78-3.51-2.12-2.12h0Z"/>
        </g>
        <g>
          <path class="cls-1" d="m137.49,103.3c12.5-1.67,25.8.57,36.6,7.27.63.39,1.26.83,1.6,1.48.72,1.42-.79,2.54-1.65,3.44-3.08,3.23-5.86,6.74-8.32,10.46-2.26,3.43-3.86,7.32-6.46,10.5-4.02,4.9-14.59-6.38-16.97-8.99-4.92-5.43-9.26-11.51-12.98-17.82"/>
          <path d="m137.49,104.8c7.99-1.04,16.15-.55,23.88,1.74,3.93,1.16,7.71,2.79,11.23,4.89.44.26,1.73.81,1.75,1.41.02.52-1.06,1.28-1.39,1.61-1.55,1.59-3.01,3.3-4.39,5.04-2.64,3.32-4.9,6.8-6.96,10.5-.96,1.73-1.93,3.48-3.15,5.05-.6.77-1.06,1.16-1.91,1.14-2.09-.04-4.17-1.57-5.78-2.77-1.97-1.47-3.78-3.18-5.5-4.93-5.73-5.84-10.54-12.56-14.7-19.59-.98-1.66-3.58-.15-2.59,1.51,4.18,7.06,9.02,13.83,14.72,19.74,1.91,1.98,3.92,3.85,6.11,5.52s4.55,3.24,7.25,3.49c3.29.3,4.99-2.39,6.53-4.88,1.2-1.94,2.22-3.97,3.38-5.93s2.54-3.91,3.95-5.76c1.51-1.98,3.13-3.88,4.83-5.68,1.21-1.28,2.89-2.62,2.54-4.6-.37-2.09-2.62-3.15-4.29-4.09-1.9-1.06-3.86-1.99-5.87-2.81-9.32-3.81-19.7-4.89-29.66-3.59-.81.11-1.49.61-1.5,1.5,0,.73.7,1.6,1.5,1.5h0Z"/>
        </g>
      </g>
      <g>
        <path class="cls-1" d="m5.69,239.78c-4.11,3.5-6.23,9.98-1.44,13.93,2,1.65,4.55,2.6,7.12,3.24,6.53,1.63,13.45,1.44,20.1.28,7.54-1.31,15.25-4.12,19.89-9.89,3.19-3.97,4.56-9.73,1.74-13.94-1.98-2.95-5.59-4.59-9.19-5.4-6.95-1.57-14.37-.61-21.02,1.87-4.71,1.76-9.22,4.07-13.27,6.94-1.23.87-2.63,1.86-3.94,2.97Z"/>
        <path d="m4.63,238.72c-2.8,2.45-4.94,6.22-4.59,10.04.41,4.56,4.12,7.29,8.13,8.78,4.89,1.82,10.39,2.26,15.57,2.04s9.99-1,14.72-2.48c8.12-2.55,16.89-8.25,17.63-17.56.85-10.76-11.61-14-20.07-13.79-11.43.28-22.73,5.73-31.39,12.97-1.48,1.24.65,3.35,2.12,2.12,6.72-5.62,15.14-9.94,23.78-11.53,4.39-.81,9.02-.83,13.37.22,3.62.88,7.68,2.75,8.86,6.6,1.11,3.61-.37,7.64-2.7,10.44s-5.73,5.02-9.21,6.48c-3.7,1.55-7.67,2.45-11.63,3.02-4.68.68-9.54.82-14.22.08-3.89-.62-9.82-1.78-11.56-5.89-1.45-3.42.79-7.21,3.32-9.42,1.46-1.27-.67-3.39-2.12-2.12Z"/>
      </g>
      <g>
        <path class="cls-1" d="m73.78,218.35c-7.9,9.03-17.17,16.84-27.4,23.1l-2.89,1.28c-2.54.53-5.35.03-7.35-1.63-8.12-6.72,4.84-11.81,9.33-14.96,6.77-4.74,13.23-9.93,19.32-15.52.27-.25.65-.51.96-.32s-.2.78-.3.43"/>
        <path d="m72.72,217.29c-4.73,5.39-9.92,10.35-15.54,14.81-2.88,2.28-5.87,4.42-8.95,6.42-.95.62-1.9,1.29-2.93,1.78-.75.36-1.66.92-2.47,1.1-3.66.77-10.15-2.97-6.72-7,2.66-3.14,6.81-4.67,10.13-6.95s6.77-4.92,10.03-7.53c1.7-1.37,3.38-2.76,5.04-4.18.83-.71,1.65-1.43,2.46-2.16.35-.31.7-.62,1.04-.94.23-.21.46-.42.69-.63.51-.34.46-.43-.15-.25l-.9-.69.1.15-.15-1.16.75-.66,1.46.39-.1-.11c-1.33-1.4-3.45.72-2.12,2.12l.1.11c.34.36.98.57,1.46.39,1.6-.62,1.99-2.99.04-3.46-.98-.24-1.72.28-2.43.89-.88.77-1.73,1.57-2.61,2.35-3.35,2.96-6.81,5.8-10.37,8.51-2.72,2.07-5.46,4.13-8.42,5.86-2.25,1.32-4.52,2.62-6.55,4.28-1.78,1.46-3.49,3.44-3.58,5.86-.1,2.79,2.18,5.31,4.47,6.59,1.64.91,3.57,1.35,5.44,1.27,1.33-.06,2.35-.42,3.52-.94,2.96-1.31,5.62-3.22,8.27-5.08,7.75-5.48,14.84-11.86,21.11-18.99,1.27-1.45-.84-3.58-2.12-2.12h0Z"/>
      </g>
      <g>
        <path class="cls-1" d="m126.54,255.58c-7.9-5.62-41.88-14.79-41.71,2.68.04,4.32,2.76,8.3,6.32,10.76,3.56,2.46,7.86,3.59,12.13,4.26,7.31,1.16,15.04,1.04,22.3-.43,10-2.02,7.63-12.51.95-17.26Z"/>
        <path d="m127.3,254.28c-2.19-1.54-4.74-2.58-7.23-3.52-3.34-1.26-6.78-2.24-10.27-2.95-6.51-1.34-14.24-2.31-20.47.61-2.61,1.22-4.64,3.39-5.5,6.16-1.42,4.59.29,9.48,3.39,12.95,4.23,4.75,10.74,6.5,16.82,7.35,6.84.96,13.79.87,20.59-.34,2.52-.45,5.05-1.16,6.9-3.03,1.5-1.52,2.27-3.57,2.31-5.68.09-4.65-2.92-8.91-6.54-11.55-1.56-1.14-3.06,1.47-1.51,2.59,2.64,1.92,4.92,5.12,5.05,8.48.14,3.74-2.77,5.48-6.09,6.13-6.13,1.2-12.49,1.36-18.69.66-5.42-.61-11.48-1.81-15.63-5.63-3.03-2.79-4.97-7.03-3.7-11.13.65-2.1,2.24-3.55,4.29-4.45,5.28-2.31,12-1.41,17.49-.33,3.48.69,6.92,1.64,10.26,2.86,2.43.89,4.9,1.91,7.03,3.41,1.58,1.11,3.08-1.49,1.51-2.59Z"/>
      </g>
      <g>
        <path class="cls-1" d="m108.58,256.49c3.86-6.14,7.51-12.4,10.94-18.79.89-1.66,1.78-3.36,2.06-5.22l-11.75-2.91c-3.31,7.02-8.75,16.41-13.35,22.66"/>
        <path d="m109.88,257.25c2.53-4.03,4.97-8.1,7.32-12.23,1.15-2.03,2.29-4.07,3.4-6.13,1.03-1.91,2.06-3.85,2.44-6.01.14-.78-.2-1.64-1.05-1.85-3.92-.97-7.83-1.94-11.75-2.91-.6-.15-1.41.09-1.69.69-3.75,7.89-8.18,15.61-13.35,22.66-1.14,1.56,1.46,3.06,2.59,1.51,5.17-7.05,9.6-14.77,13.35-22.66l-1.69.69c3.92.97,7.83,1.94,11.75,2.91l-1.05-1.85c-.37,2.09-1.37,3.88-2.37,5.72-1.11,2.05-2.25,4.09-3.41,6.12-2.27,3.99-4.64,7.92-7.08,11.81-1.03,1.64,1.57,3.15,2.59,1.51h0Z"/>
      </g>
      <g>
        <path class="cls-1" d="m87.86,144.04c-6.02-3.86-11.75-8.18-17.13-12.91-.54-.47-1.09-.97-1.4-1.62s-.32-1.49.16-2.02c.31-.34.76-.5,1.19-.66,4.22-1.48,8.45-2.95,12.67-4.43l-2.85-10.26c-9.96,1.82-19.56,5.59-28.09,11.04-2.08,1.33-4.28,3.04-4.6,5.49-.29,2.25,1.11,4.35,2.64,6.02,3.19,3.49,7.14,6.18,11.13,8.73,7.55,4.82,15.35,9.25,23.36,13.26.38.19.9.36,1.18.04s-.51-.78-.48-.36"/>
        <path d="m88.61,142.74c-5.26-3.38-10.3-7.09-15.06-11.15-.59-.5-1.18-1.01-1.76-1.53-.33-.3-1.11-.81-1.14-1.3-.04-.58.89-.66,1.37-.83l2.11-.74c3.21-1.12,6.41-2.24,9.62-3.37.76-.27,1.28-1.02,1.05-1.85-.95-3.42-1.9-6.84-2.85-10.26-.23-.83-1.05-1.2-1.85-1.05-6.49,1.2-12.79,3.2-18.79,5.94-2.94,1.34-5.79,2.86-8.54,4.55-2.34,1.44-4.91,3.06-6.01,5.71-2.5,6.02,4.95,11.47,9.09,14.48,5.54,4.03,11.54,7.51,17.51,10.86,3.42,1.92,6.88,3.82,10.4,5.54,1.26.61,3.19,1.11,3.8-.65.51-1.46-.93-2.59-2.28-2.35-.52.09-.9.58-1.05,1.05l-.05.14c-.59,1.84,2.3,2.63,2.89.8l.05-.14-1.05,1.05-1.41-1.34.69-.9.34-.04c-.21-.11-.42-.21-.63-.32-.28-.14-.56-.28-.84-.43-.63-.32-1.26-.64-1.89-.97-1.32-.69-2.64-1.39-3.96-2.1-2.49-1.35-4.95-2.74-7.4-4.16-4.82-2.82-9.68-5.69-14.16-9.03-2.1-1.57-4.18-3.32-5.85-5.36s-2.43-4.26-.59-6.32c1.6-1.79,3.93-2.99,5.98-4.17,2.36-1.35,4.78-2.58,7.26-3.67,5.52-2.44,11.34-4.18,17.27-5.28l-1.85-1.05c.95,3.42,1.9,6.84,2.85,10.26l1.05-1.85c-3.83,1.34-7.67,2.68-11.5,4.02-1.51.53-3.27.98-3.74,2.73-.4,1.51.37,2.96,1.42,4,2.56,2.54,5.55,4.75,8.41,6.94,3.09,2.36,6.28,4.59,9.55,6.69,1.63,1.05,3.13-1.55,1.51-2.59h0Z"/>
      </g>
      <g>
        <path class="cls-1" d="m108.19,101.58c-14.41,18.65-23.76,41.17-26.78,64.55,21.2,4.06,42.66,6.73,64.2,8,1.34.08,2.85.09,3.79-.87.7-.72.87-1.8,1-2.8,2.91-23.69.21-48.05-7.81-70.52"/>
        <path d="m106.89,100.83c-11.32,14.7-19.56,31.76-24.06,49.76-1.28,5.12-2.24,10.31-2.92,15.55-.08.6.52,1.34,1.1,1.45,19.56,3.74,39.35,6.32,59.22,7.7,2.31.16,4.75.55,7.06.34,1.98-.18,3.55-1.16,4.21-3.09.71-2.06.69-4.54.89-6.7.21-2.31.37-4.63.48-6.96.43-9.43-.02-18.88-1.29-28.23-1.44-10.6-3.97-21.03-7.56-31.11-.64-1.81-3.54-1.03-2.89.8,6.03,16.98,9.07,34.95,8.89,52.97-.04,4.49-.28,8.99-.72,13.46-.11,1.08-.22,2.16-.35,3.24-.11.87-.13,2.02-1.02,2.46-.68.33-1.59.21-2.32.17-1.31-.07-2.61-.16-3.92-.24-9.38-.62-18.74-1.52-28.07-2.67-10.66-1.32-21.27-3.01-31.81-5.02l1.1,1.45c2.36-18.01,8.52-35.5,17.88-51.06,2.65-4.41,5.56-8.65,8.7-12.73.5-.65.09-1.67-.54-2.05-.77-.46-1.56-.1-2.05.54h0Z"/>
      </g>
      <path d="m96.49,180.38c1.93,0,1.93-3,0-3s-1.93,3,0,3h0Z"/>
      <g>
        <path class="cls-1" d="m85.87,169.02c-12.29,15.55-25.94,30.02-40.75,43.2,8.38,4.34,16.75,8.68,25.13,13.02,1.02.53,2.09,1.07,3.24,1.09,1.24.02,2.41-.57,3.47-1.22,4.57-2.8,8.24-6.83,11.69-10.94,8.56-10.2,16.15-21.16,23.72-32.11-1.55,17.07-6.13,33.85-13.48,49.34,9.59,2.91,19.19,5.82,28.78,8.72,7.27-19.72,16.93-41.9,19.65-62.74"/>
        <path d="m84.81,167.96c-9.58,12.11-19.98,23.57-31.11,34.28-3.16,3.04-6.37,6.01-9.64,8.92-.7.62-.52,1.93.3,2.36,5.73,2.97,11.46,5.94,17.2,8.91,2.9,1.5,5.76,3.11,8.71,4.5,1.15.54,2.34.97,3.63.89,1.45-.09,2.79-.78,4-1.53,4.83-3,8.66-7.28,12.26-11.61,3.99-4.78,7.77-9.73,11.45-14.76,4.11-5.63,8.08-11.37,12.05-17.1l-2.8-.76c-1.55,16.81-6.06,33.32-13.28,48.58-.42.88-.09,1.9.9,2.2,9.59,2.91,19.19,5.82,28.78,8.72.82.25,1.57-.3,1.85-1.05,6-16.24,12.83-32.26,17.01-49.1,1.15-4.63,2.06-9.31,2.69-14.04.11-.81-.77-1.49-1.5-1.5-.9,0-1.39.7-1.5,1.5-2.26,16.95-8.51,33.17-14.57,49.06-1.69,4.42-3.39,8.84-5.03,13.28l1.85-1.05c-9.59-2.91-19.19-5.82-28.78-8.72l.9,2.2c7.45-15.77,12.08-32.72,13.69-50.09.15-1.61-2.03-1.86-2.8-.76-6.69,9.67-13.38,19.35-20.77,28.5-3.38,4.19-6.84,8.47-11.05,11.86-1.86,1.5-4.5,3.84-7.03,2.87-2.69-1.03-5.27-2.68-7.83-4.01-6.17-3.2-12.35-6.39-18.52-9.59l.3,2.36c11.53-10.27,22.37-21.32,32.4-33.05,2.85-3.33,5.63-6.71,8.34-10.15,1.19-1.5-.92-3.63-2.12-2.12h0Z"/>
      </g>
      <g>
        <path class="cls-1" d="m108.58,103c-10.31-1.93-21.09-1.32-31.12,1.76-.39.12-.81.27-1.02.61-.24.39-.13.89-.02,1.33,1.99,7.91,2.54,16.18,1.63,24.28-.03.27-.05.59.15.78.15.15.37.17.58.19,9.41.85,19.1-1.7,26.87-7.08.24-.17.51-.39.48-.69s-.59-.33-.55-.05"/>
        <path d="m108.98,101.55c-7.05-1.29-14.22-1.5-21.33-.54-3.54.48-7.2,1.13-10.59,2.3-1.26.44-2.3,1.23-2.26,2.7.05,1.72.76,3.53,1.08,5.22.66,3.57,1.02,7.19,1.09,10.82.03,1.72,0,3.45-.1,5.17-.04.78-.1,1.56-.17,2.35-.08.89-.34,1.87.08,2.71.66,1.35,2.42,1.22,3.69,1.28,1.69.08,3.39.05,5.07-.08,3.23-.25,6.43-.85,9.52-1.82,3.48-1.09,6.85-2.62,9.94-4.57,1.22-.77,3.33-1.9,2.43-3.67-.79-1.54-2.73-1.09-3.29.31-.71,1.79,2.19,2.57,2.89.8l.06-.16-1.05,1.05-.42.03-.9-.69.11.17-.15-1.16.15-.16c-.15.1-.31.21-.46.31-.29.2-.59.39-.89.58-.48.3-.96.59-1.45.87-1.16.67-2.36,1.27-3.58,1.82-2.39,1.07-4.91,1.88-7.46,2.45s-5.16.89-7.78.95c-.63.01-1.27.01-1.9,0-.5-.01-1.22-.22-1.69-.08l-.42-.03c.22.84.34,1.05.35.63.11-.21.06-.59.08-.84.09-.86.16-1.72.21-2.58.36-5.69,0-11.42-1.03-17.03-.25-1.39-.56-2.77-.89-4.14-.02-.1-.05-.76-.2-.38-.12.29.38-.01.58-.08.74-.22,1.48-.43,2.23-.62,2.7-.7,5.46-1.24,8.23-1.58,6.45-.78,13.02-.59,19.41.58,1.89.35,2.7-2.54.8-2.89h0Z"/>
      </g>
      <g>
        <g>
          <path class="cls-1" d="m166.21,43.14c1.19-2.42,2.48-4.96,4.76-6.4,4.23-2.68,10.24-.18,12.86,4.09s2.64,9.62,2.06,14.59c-.41,3.53-1.09,7.04-2.01,10.47-1.84,6.83-11.52,11.38-17.61,6.22-.5-.43-.95-1.21-.5-1.68"/>
          <path d="m167.5,43.89c.97-1.97,1.98-4.14,3.75-5.53,1.49-1.16,3.41-1.47,5.23-1.06,4.37.98,6.93,4.71,7.8,8.9,1.04,5.04.1,10.56-.96,15.52-.44,2.08-.81,4.28-1.95,6.11-.91,1.45-2.22,2.64-3.7,3.5-1.65.97-3.54,1.54-5.46,1.5-.97-.02-1.94-.2-2.85-.56-.41-.16-.8-.37-1.17-.6-.23-.14-.46-.28-.67-.45l-.21-.17c-.22-.33-.3-.28-.26.13,1-1.66-1.6-3.17-2.59-1.51-1.53,2.56,1.84,4.59,3.82,5.38,2.14.86,4.48.96,6.72.5,4.43-.9,8.45-4.16,10.03-8.42,1.15-3.1,1.65-6.61,2.1-9.87s.73-6.27.41-9.4c-.58-5.61-3.23-10.79-8.68-12.95-2.6-1.03-5.57-1.07-8.08.21-2.89,1.47-4.5,4.48-5.87,7.26-.85,1.73,1.74,3.25,2.59,1.51h0Z"/>
        </g>
        <g>
          <path class="cls-1" d="m74.82,46.18c-.61,8.44-1.22,16.97.08,25.33s4.69,16.67,10.95,22.36c6,5.46,14.1,8.07,22.13,9.23,20.17,2.92,42.26-3.27,55.48-18.79,13.21-15.52,15.13-40.66,1.86-56.13"/>
          <path d="m73.32,46.18c-1.07,14.81-1.97,31.3,7.24,43.97,8.25,11.35,22.9,14.97,36.29,15.14,12.79.17,25.86-3.13,36.59-10.2,10.51-6.93,18.15-17.31,21.08-29.61s1.38-24.71-5.43-34.81c-.83-1.23-1.74-2.42-2.71-3.55-1.25-1.47-3.36.66-2.12,2.12,7.37,8.68,9.83,20.65,8.09,31.75-1.82,11.65-7.94,22.01-17.25,29.25s-21.54,11.29-33.51,11.96c-6.19.34-12.46-.11-18.51-1.53-6.41-1.5-12.67-4.21-17.33-8.97-11.69-11.92-10.54-30.19-9.43-45.51.14-1.93-2.86-1.92-3,0h0Z"/>
        </g>
        <g>
          <path class="cls-1" d="m78.79,49.76c2.64-5.02,5.91-9.8,10.29-13.41s9.95-5.98,15.61-5.74c2.1.09,4.26.52,6.25-.14s3.65-2.99,2.66-4.84"/>
          <path d="m80.08,50.51c3.85-7.27,9.24-14.41,17.3-17.25,1.95-.69,3.99-1.12,6.07-1.17s4.13.38,6.19.16c3.58-.4,6.96-3.64,5.25-7.38-.8-1.75-3.39-.23-2.59,1.51.67,1.48-1.51,2.66-2.62,2.85-2.04.35-4.17-.19-6.23-.14-3.72.09-7.37,1.19-10.64,2.94-6.9,3.69-11.72,10.18-15.31,16.97-.9,1.71,1.69,3.22,2.59,1.51h0Z"/>
        </g>
        <g>
          <path class="cls-1" d="m118.73,24.87c3.99,2.55,9.26,1.21,13.59-.69,4.97-2.18,9.66-5,13.92-8.37,3.43-2.72,6.67-5.93,8.24-10.02.14-.36.26-.76.15-1.13-.11-.35-.4-.6-.71-.79-2.42-1.52-5.56-.41-8.18.73-3.85,1.68-7.71,3.36-11.56,5.04"/>
          <path d="m117.97,26.16c3.96,2.4,8.74,1.74,12.89.21,4.58-1.69,8.95-4.13,12.95-6.91,3.78-2.63,7.5-5.59,10.11-9.43,1.06-1.56,2.99-4.38,1.91-6.29s-3.94-2.29-5.94-2.01c-2.75.38-5.3,1.74-7.82,2.84-2.89,1.26-5.78,2.52-8.67,3.78-1.77.77-.24,3.36,1.51,2.59,4.11-1.79,8.18-3.73,12.35-5.37,1.89-.74,3.56-1.14,5.53-.6.51.14.35.11.15.62-.17.43-.38.85-.59,1.25-.43.81-.93,1.59-1.48,2.33-2.29,3.08-5.45,5.53-8.58,7.71-3.37,2.34-6.97,4.38-10.74,6.01s-8.35,2.95-12.08.69c-1.65-1-3.16,1.59-1.51,2.59h0Z"/>
        </g>
        <g>
          <path class="cls-1" d="m143.36,24.96c9.32,1.46,19.29-2.26,25.38-9.47,1.04-1.23,2.02-2.78,1.63-4.33-.45-1.78-2.42-2.65-4.18-3.16-3.07-.88-6.23-1.44-9.42-1.65"/>
          <path d="m142.96,26.4c6.68.99,13.52-.29,19.38-3.67,4.15-2.39,14.29-10.28,7.19-14.93-1.67-1.09-3.81-1.54-5.73-1.96-2.31-.51-4.67-.83-7.03-1-1.93-.14-1.92,2.86,0,3,2.26.16,4.49.49,6.7,1,1.55.36,3.52.67,4.78,1.73,2.64,2.21-3.24,6.71-4.87,7.9-5.58,4.1-12.74,6.06-19.62,5.03-1.89-.28-2.7,2.61-.8,2.89h0Z"/>
        </g>
        <g>
          <path class="cls-1" d="m170.59,29.1c1.58-1.25,3.27-2.68,3.63-4.66.48-2.64-2.2-5.32-4.83-4.86"/>
          <path d="m171.65,30.16c2.32-1.84,4.61-4.21,4-7.43-.28-1.47-1.25-2.75-2.43-3.62-1.24-.92-2.73-1.22-4.24-.98-.78.12-1.28,1.14-1.05,1.85.27.85,1.01,1.18,1.85,1.05-.34.05.08,0,.13,0,.13,0,.26,0,.39.01-.26-.01,0,0,.12.03.11.02.21.05.31.09.06.02.12.04.19.06-.14-.06-.15-.07-.06-.02.1.05.2.1.29.15.12.06.23.14.34.21.34.22-.19-.18.12.09.2.18.38.36.56.57s-.04-.07.05.07c.07.11.15.22.21.34.05.1.1.19.15.29-.14-.28.02.06.04.13.04.12.08.25.1.38.02.09.02.42.03.12,0,.13.01.26.01.39,0,.04-.04.4,0,.2.03-.19-.06.23-.07.28-.03.11-.07.22-.1.34-.1.32.08-.11-.07.16-.07.12-.13.25-.2.37s-.15.24-.23.36c-.03.05-.28.36-.11.15-.71.87-1.58,1.58-2.46,2.28-.62.49-.55,1.62,0,2.12.66.6,1.46.52,2.12,0h0Z"/>
        </g>
        <g>
          <path class="cls-1" d="m71.55,46.9c0-6.4,2.42-15.39,6-20.91,3.85-5.93,9.64-9.33,16.24-11.52.66-.22,1.36-.45,2.05-.33s1.36.69,1.33,1.39c-.02.5-.38.92-.51,1.4s.18,1.17.67,1.04"/>
          <path d="m73.05,46.9c.04-6.14,1.71-12.62,4.57-18.05s8-9.58,13.87-11.95c.83-.33,1.67-.64,2.52-.93.47-.16.93-.32,1.42-.37.05,0,.42.17.26-.03-.11-.14-.2.26-.26.42-.64,1.51.04,3.48,1.91,3.47s1.93-3.01,0-3c.37,0,.46.64.85.55.18-.04.24-.39.29-.56.12-.36.19-.72.18-1.1-.03-.92-.61-1.79-1.39-2.26-1.63-.98-3.52-.22-5.14.37-3.29,1.2-6.48,2.72-9.29,4.82-5.7,4.26-9.01,10.32-10.96,17.06-1.09,3.74-1.79,7.66-1.82,11.56-.01,1.93,2.99,1.93,3,0h0Z"/>
        </g>
        <g>
          <path class="cls-1" d="m101.16,14.28c10.74-7.96,24.02-12.33,37.38-12.78,1.07-.04,2.26,0,3.03.75s.51,2.42-.56,2.47"/>
          <path d="m101.92,15.58c5.86-4.31,12.42-7.6,19.38-9.71,3.4-1.03,6.89-1.81,10.42-2.29,1.84-.25,3.69-.42,5.55-.52.78-.04,1.59-.14,2.37-.04.31.04.63.09.88.29.37.3-.52.07.1-.04-1.9.34-1.09,3.23.8,2.89,1.76-.31,2.45-2.33,1.91-3.88-.69-1.98-2.96-2.33-4.78-2.29-4.53.1-9.09.75-13.51,1.76-8.85,2.03-17.32,5.83-24.64,11.22-1.54,1.13-.04,3.74,1.51,2.59h0Z"/>
        </g>
        <g>
          <path class="cls-1" d="m109.85,60.73c-4.61,3.23-7.18,7.73-8.12,12.29s-.35,9.21.63,13.77c.96,4.46,2.51,9.16,7.1,12.27,5.89,3.99,15.2,4.17,23.01,2.57,10.44-2.13,19.71-7.03,25.61-13.53,5.9-6.5,8.37-14.54,6.82-22.2-.66-3.25-2.18-6.62-5.72-8.72-2.29-1.36-5.22-2.06-8.12-2.54-11.52-1.94-23.94-.98-34.62,2.65"/>
          <path d="m109.09,59.43c-4.89,3.5-8.18,8.62-9.05,14.6-.5,3.44-.25,6.89.33,10.31.47,2.78,1.07,5.57,2.14,8.19,2.16,5.26,6.37,8.78,11.8,10.36s11.7,1.42,17.39.4c11.45-2.04,23.26-7.74,30.09-17.46,3.35-4.77,5.3-10.61,5.03-16.47-.25-5.43-2.25-10.93-7.24-13.68-3.15-1.74-6.83-2.35-10.36-2.83-3.73-.51-7.49-.75-11.26-.69-7.43.11-14.88,1.3-21.94,3.67-1.82.61-1.04,3.51.8,2.89,11.28-3.79,23.89-4.72,35.57-2.33,2.69.55,5.54,1.33,7.61,3.24,1.7,1.56,2.71,3.62,3.26,5.84,1.23,4.97.47,10.34-1.75,14.92-4.71,9.72-14.83,15.72-24.88,18.65-5.25,1.53-10.73,2.34-16.2,1.9-4.88-.39-10.08-1.94-13.17-5.98-1.62-2.12-2.52-4.67-3.15-7.24-.8-3.25-1.38-6.61-1.36-9.97.03-6.28,2.69-12.04,7.85-15.73,1.56-1.11.06-3.72-1.51-2.59h0Z"/>
        </g>
        <g>
          <path class="cls-1" d="m129.45,38.8c.66,1.12,1.8,1.89,2.99,2.42,2.65,1.19,5.62,1.37,8.52,1.53-.19.71-.58,1.36-1.03,1.94-1.6,2.05-4,3.37-6.51,4.04s-5.15.72-7.74.62"/>
          <path d="m128.15,39.56c2.61,4.14,8.43,4.45,12.8,4.69l-1.45-1.9c-.67,2.22-3.16,3.78-5.21,4.53-2.77,1.01-5.72,1.08-8.63.96-1.93-.08-1.93,2.92,0,3,3.43.13,6.97-.03,10.18-1.37,2.8-1.17,5.65-3.3,6.56-6.33.29-.98-.5-1.85-1.45-1.9-2-.11-4-.22-5.95-.72-1.56-.4-3.36-1.05-4.26-2.48-1.03-1.63-3.62-.13-2.59,1.51h0Z"/>
        </g>
        <g>
          <path class="cls-1" d="m102.14,43c.87,1.09,2.29,1.57,3.65,1.89,2.38.55,4.91.75,7.26.07s4.51-2.33,5.34-4.63"/>
          <path d="m101.08,44.06c1.16,1.36,2.91,1.97,4.6,2.34,2.02.44,4.09.63,6.14.34,3.55-.49,6.71-2.61,8.02-6.01.29-.76-.32-1.65-1.05-1.85-.85-.23-1.55.29-1.85,1.05-.89,2.31-3.42,3.61-5.76,3.89-1.52.18-3.07.03-4.57-.28-1.27-.27-2.55-.58-3.42-1.59-.53-.62-1.58-.54-2.12,0-.61.61-.53,1.5,0,2.12h0Z"/>
        </g>
        <g>
          <path class="cls-1" d="m148.99,37.56c1.07,1.3,2.82,1.78,4.45,2.19.99.25,1.99.5,3.02.53s2.08-.16,2.92-.74c1.25-.86,1.84-2.41,2.12-3.9"/>
          <path d="m147.93,38.62c.99,1.15,2.41,1.79,3.84,2.23,1.54.47,3.19.91,4.8.93s3.3-.48,4.45-1.67c1.07-1.1,1.64-2.6,1.93-4.08.16-.79-.23-1.62-1.05-1.85-.74-.2-1.69.25-1.85,1.05-.19.95-.45,1.99-1.1,2.69-.74.79-1.8.92-2.85.83-1.19-.09-2.41-.46-3.54-.8-.98-.3-1.84-.68-2.51-1.45-.53-.61-1.58-.54-2.12,0-.61.61-.53,1.51,0,2.12h0Z"/>
        </g>
        <g>
          <path class="cls-1" d="m76.38,56.5c.45-2.83-2.21-5.16-4.75-6.5-1.67-.88-3.51-1.64-5.39-1.43-3.15.36-5.34,3.31-6.63,6.21-1.88,4.24-2.69,9.04-1.77,13.58.92,4.55,3.68,8.8,7.72,11.06s9.37,2.32,13.22-.27"/>
          <path d="m77.88,56.5c.54-4.72-4.92-8.2-8.88-9.19-5.02-1.25-8.76,2.44-10.68,6.71-2.18,4.86-3.06,10.44-1.71,15.66,1.14,4.42,3.93,8.5,7.88,10.86,4.56,2.72,10.57,2.83,15.06-.08,1.62-1.05.11-3.64-1.51-2.59-3.12,2.02-7.06,2.26-10.49.86s-5.87-4.27-7.26-7.53c-1.64-3.84-1.64-8.21-.57-12.2.84-3.15,2.52-7.8,6.05-8.8,2.14-.6,4.47.61,6.22,1.75,1.6,1.04,3.13,2.5,2.9,4.55-.22,1.91,2.78,1.9,3,0h0Z"/>
        </g>
      </g>
      <g>
        <g>
          <path class="cls-1" d="m215.61,74.11c9.48,17.1,18.97,34.2,28.45,51.29.25.46.55.95,1.04,1.14.5.18,1.05,0,1.54-.2,5.08-1.95,10.05-4.19,14.89-6.69.61-.32,1.26-.68,1.53-1.32.32-.77-.04-1.65-.41-2.4-8.51-17.72-17.92-35.02-28.18-51.8"/>
          <path d="m214.31,74.87c4.82,8.69,9.65,17.39,14.47,26.08l7.23,13.04,3.62,6.52c1.13,2.04,2.13,4.29,3.47,6.2s3.36,1.32,5.29.56c2.2-.87,4.39-1.8,6.55-2.77s4.36-2.02,6.5-3.11c1.78-.9,3.51-1.97,3.19-4.25-.15-1.08-.73-2.07-1.2-3.04-.52-1.08-1.05-2.16-1.57-3.23-1.06-2.15-2.13-4.3-3.21-6.44-2.16-4.28-4.38-8.53-6.65-12.76-5.14-9.58-10.56-19.01-16.23-28.29-1-1.65-3.6-.14-2.59,1.51,9.25,15.14,17.82,30.7,25.66,46.62.46.93.92,1.87,1.37,2.8s1.21,2,1.4,3.01c.15.83-1.05,1.15-1.69,1.48-1.07.54-2.15,1.08-3.23,1.59-2.03.97-4.09,1.9-6.17,2.78-.97.41-1.95.81-2.93,1.2-.45.18-.89.35-1.34.52-.6.23-.58.27-.89-.25-2.37-3.98-4.5-8.12-6.75-12.17l-6.63-11.95c-5.02-9.06-10.05-18.11-15.07-27.17-.94-1.69-3.53-.18-2.59,1.51h0Z"/>
        </g>
        <g>
          <path class="cls-1" d="m207.45,68.67c.89,2.45,2.04,4.81,3.44,7.02.51.8,1.08,1.61,1.93,2.05.94.48,2.07.41,3.12.24,3.93-.63,7.57-2.43,11.07-4.32,4.39-2.37,8.68-4.93,12.85-7.66.89-.58,1.83-1.25,2.16-2.27.3-.94,0-1.95-.35-2.87-1.03-2.81-2.4-5.49-4.06-7.98"/>
          <path d="m206,69.07c.74,1.99,1.6,3.94,2.65,5.79.83,1.48,1.75,3.19,3.26,4.08,1.62.94,3.54.68,5.29.32,2-.41,3.93-1.12,5.8-1.94,3.83-1.68,7.48-3.81,11.07-5.95,1.81-1.08,3.6-2.18,5.37-3.32,1.47-.95,3.22-1.89,3.89-3.6.8-2.02-.24-4.17-1.03-6.02-.94-2.21-2.08-4.31-3.4-6.31-1.06-1.61-3.66-.1-2.59,1.51,1.23,1.87,2.33,3.84,3.22,5.9.39.91.93,1.95,1.06,2.94s-.41,1.47-1.2,2.02c-3.58,2.53-7.47,4.72-11.3,6.85s-7.5,4.16-11.69,5.02c-.84.17-2,.45-2.83.07-.76-.35-1.21-1.22-1.64-1.9-1.23-1.98-2.24-4.08-3.05-6.27-.66-1.8-3.56-1.02-2.89.8h0Z"/>
        </g>
        <g>
          <g>
            <path class="cls-1" d="m217.42,31.69c1.52-.16,3.02-.16,4.45.03,14.62,1.91,21.64,18.33,11.13,28.73-7.13,7.05-21.2,12.21-30.22,5.71-6.14-4.43-8.69-13.2-5.9-20.23,2.96-7.44,12.13-13.34,20.53-14.23Z"/>
            <path d="m217.42,33.19c7.24-.7,14.48,2.76,17.7,9.45,2.95,6.13,1,12.94-3.87,17.41-5.55,5.1-14.19,8.77-21.8,7.31s-13.09-9.46-12.06-17.4c1.2-9.29,11.37-15.77,20.05-16.77,1.9-.22,1.92-3.22,0-3-9.15,1.05-19.08,6.93-22.22,15.99-2.95,8.51,1.19,19.09,9.52,22.82s18.76.62,25.89-4.59c3.38-2.47,6.24-5.5,7.79-9.44,1.36-3.45,1.48-7.36.45-10.91-2.67-9.19-12.1-14.76-21.42-13.87-1.9.18-1.92,3.18,0,3Z"/>
          </g>
          <g>
            <path class="cls-1" d="m203.94,40.17l1.25,4.03c.72,2.33,1.45,4.67,1.93,7.06.92,4.61.91,9.35.9,14.05.04-.24.08-.47.11-.71"/>
            <path d="m202.49,40.57c1.21,3.9,2.59,7.79,3.31,11.81.76,4.26.72,8.63.71,12.94,0,1.63,2.67,2.11,2.95.4.04-.24.08-.47.11-.71.31-1.89-2.59-2.7-2.89-.8-.04.24-.08.47-.11.71l2.95.4c.01-4.43-.01-8.87-.74-13.26s-2.14-8.24-3.39-12.29c-.57-1.84-3.47-1.05-2.89.8h0Z"/>
          </g>
          <g>
            <path class="cls-1" d="m224.74,35.31l1.25,4.03c.72,2.33,1.45,4.67,1.93,7.06.92,4.61.91,9.35.9,14.05.04-.24.08-.47.11-.71"/>
            <path d="m223.3,35.71c1.21,3.9,2.59,7.79,3.31,11.81.76,4.26.72,8.63.71,12.94,0,1.63,2.67,2.11,2.95.4.04-.24.08-.47.11-.71.31-1.89-2.59-2.7-2.89-.8-.04.24-.08.47-.11.71l2.95.4c.01-4.43-.01-8.87-.74-13.26s-2.14-8.24-3.39-12.29c-.57-1.84-3.47-1.05-2.89.8h0Z"/>
          </g>
          <g>
            <path class="cls-1" d="m214.97,34.12l1.43,5.27c.83,3.05,1.66,6.11,2.15,9.26.93,6.07.56,12.38.19,18.64.07-.32.14-.63.21-.95"/>
            <path d="m213.52,34.52c1.45,5.34,3.21,10.72,3.8,16.24s.24,11.03-.08,16.53c-.1,1.68,2.58,2.05,2.95.4.07-.32.14-.63.21-.95.42-1.88-2.47-2.68-2.89-.8-.07.32-.14.63-.21.95l2.95.4c.34-5.65.68-11.35.03-17s-2.37-11.1-3.85-16.57c-.51-1.86-3.4-1.07-2.89.8h0Z"/>
          </g>
          <g>
            <path class="cls-1" d="m217.31,34.29l-2.53,3.38c-1.47,1.95-2.94,3.91-4.6,5.7-3.2,3.45-7.04,6.22-10.86,8.97.21-.11.43-.21.64-.32"/>
            <path d="m216.01,33.54c-2.52,3.36-4.94,6.86-7.92,9.83s-6.22,5.29-9.53,7.67c-1.55,1.12-.24,3.47,1.51,2.59.21-.11.43-.21.64-.32,1.73-.87.21-3.46-1.51-2.59-.21.11-.43.21-.64.32l1.51,2.59c3.51-2.53,7.06-5.07,10.14-8.14s5.72-6.88,8.39-10.44c.49-.65.1-1.68-.54-2.05-.77-.45-1.56-.11-2.05.54h0Z"/>
          </g>
          <g>
            <path class="cls-1" d="m233.44,48.3l-2.53,3.38c-1.47,1.95-2.94,3.91-4.6,5.7-3.2,3.45-7.04,6.22-10.86,8.97.21-.11.43-.21.64-.32"/>
            <path d="m232.14,47.54c-2.52,3.36-4.94,6.86-7.92,9.83s-6.22,5.29-9.53,7.67c-1.55,1.12-.24,3.47,1.51,2.59.21-.11.43-.21.64-.32,1.73-.87.21-3.46-1.51-2.59-.21.11-.43.21-.64.32l1.51,2.59c3.51-2.53,7.06-5.07,10.14-8.14s5.72-6.88,8.39-10.44c.49-.65.1-1.68-.54-2.05-.77-.45-1.56-.11-2.05.54h0Z"/>
          </g>
          <g>
            <path class="cls-1" d="m228.68,39.69c-1.14,1.42-2.29,2.83-3.43,4.25-1.98,2.46-3.97,4.92-6.24,7.16-4.37,4.31-9.7,7.71-14.99,11.08.3-.13.59-.26.89-.38"/>
            <path d="m227.61,38.62c-3.49,4.32-6.83,8.87-10.95,12.62s-8.77,6.68-13.41,9.63c-1.67,1.06-.22,3.34,1.51,2.59.3-.13.59-.26.89-.38,1.77-.76.24-3.35-1.51-2.59-.3.13-.59.26-.89.38l1.51,2.59c4.73-3.01,9.5-6.05,13.69-9.81s7.69-8.48,11.27-12.92c1.2-1.49-.91-3.62-2.12-2.12h0Z"/>
          </g>
        </g>
      </g>
      <g>
        <path class="cls-1" d="m213.64,103.35c-7.36-13.44,11.8-27.42,22.87-16.5,4.47,4.41,4.93,11.24,2.09,16.66-2.81,5.34-9.54,8.19-15.32,8.83"/>
        <path d="m214.93,102.59c-4.03-7.55,1.5-15.93,9.27-17.81,3.95-.96,8.05.1,11.01,2.9,4,3.78,4.66,9.89,2.25,14.74-2.58,5.2-8.7,7.77-14.2,8.42-1.89.22-1.92,3.22,0,3,5.98-.7,12.23-3.15,15.8-8.24s3.82-12.65.19-17.78c-3.07-4.34-8.27-6.87-13.59-6.3-4.84.51-9.28,3.11-12.18,7-3.45,4.61-3.85,10.54-1.14,15.6.91,1.7,3.5.19,2.59-1.51h0Z"/>
      </g>
      <path d="m115.65,36.43l2.64,1.51c.34.19.78.26,1.16.15.35-.1.73-.36.9-.69.18-.35.28-.77.15-1.16s-.34-.7-.69-.9l-2.64-1.51c-.34-.19-.78-.26-1.16-.15-.35.1-.73.36-.9.69-.18.35-.28.77-.15,1.16s.34.7.69.9h0Z"/>
      <path d="m145.04,29.45l-.75,1.88c-.06.2-.07.4-.03.6,0,.2.07.39.18.56.09.17.22.32.39.42.14.13.31.22.51.27.38.09.81.07,1.16-.15l.3-.23c.19-.19.31-.41.39-.66l.75-1.88c.06-.2.07-.4.03-.6,0-.2-.07-.39-.18-.56-.09-.17-.22-.32-.39-.42-.14-.13-.31-.22-.51-.27-.38-.09-.81-.07-1.16.15l-.3.23c-.19.19-.31.41-.39.66h0Z"/>
      <path d="m127.61,35.11l6.89,1.22c.77.14,1.65-.2,1.85-1.05.24-1.05.47-2.09.71-3.14.17-.76-.23-1.66-1.05-1.85-.76-.17-1.66.23-1.85,1.05-.24,1.05-.47,2.09-.71,3.14l1.85-1.05c-2.3-.41-4.59-.81-6.89-1.22-.77-.14-1.65.21-1.85,1.05-.17.73.22,1.7,1.05,1.85h0Z"/>
    </g>
  </g>
</svg>