<?xml version="1.0" encoding="UTF-8"?>
<svg id="_레이어_2" data-name="레이어 2" xmlns="http://www.w3.org/2000/svg" viewBox="0 0 214.56 263.83">
  <defs>
    <style>
      .cls-1 {
        fill: #fff;
      }
    </style>
  </defs>
  <g id="_레이어_1-2" data-name="레이어 1">
    <g>
      <g>
        <g>
          <g>
            <path class="cls-1" d="m184.66,193.78c-5.06,1.48-8.83,5.94-10.71,10.86s-2.15,10.3-2.2,15.57c-.06,6.06.15,12.19,1.76,18.03,1.61,5.84,4.76,11.42,9.64,15s11.66,4.85,17.18,2.34c2.58-1.18,4.78-3.1,6.54-5.32,14.22-17.86,2.39-64.79-20.06-55.85"/>
            <path d="m184.26,192.34c-6.99,2.15-11.28,8.73-12.86,15.57-.93,4.03-1.11,8.19-1.15,12.31s.07,8.51.66,12.73c1.04,7.44,3.9,15.03,9.65,20.12s13.5,6.93,20.35,3.89c9.78-4.34,13.17-16.2,13.6-25.97.42-9.47-1.48-19.57-6.19-27.86-3.9-6.88-10.58-12.63-18.96-11.03-1.01.19-1.99.5-2.95.87-1.78.7-1,3.6.8,2.89,3.12-1.22,6.42-1.48,9.53-.18s5.53,3.75,7.4,6.43c4.81,6.9,6.96,15.67,7.36,23.98s-.71,17.1-5.94,23.44c-2.15,2.61-4.89,4.71-8.22,5.5s-6.76.3-9.82-1.01c-6.24-2.67-10.26-8.75-12.23-15.04-2.3-7.36-2.32-15.44-1.93-23.07.35-6.79,1.94-14.31,7.69-18.64,1.21-.91,2.55-1.6,4-2.04,1.84-.57,1.06-3.46-.8-2.89h0Z"/>
          </g>
          <g>
            <path class="cls-1" d="m178.56,228.81c.49,2.73,1.12,5.91,2.83,8.18,2.32,3.08,6.28,1.23,8.07-1.38,2.28-3.33,2.87-7.89,2.93-11.82.08-4.75-1.04-11.38-6.01-13.46-8.99-3.75-8.63,13.96-7.82,18.47Z"/>
            <path d="m177.11,229.21c.58,3.24,1.3,7.32,3.93,9.6,2.4,2.09,5.7,1.32,7.98-.53,2.67-2.17,3.87-5.86,4.41-9.14s.64-6.36.21-9.51c-.68-5.02-3.64-11.35-9.59-11.3-4.23.03-6.05,4.46-6.74,7.98-.82,4.17-.92,8.71-.19,12.91.33,1.9,3.22,1.09,2.89-.8-.15-.87-.26-2.38-.3-3.62-.05-1.68-.02-3.37.13-5.04.22-2.53.74-6.53,2.83-7.99.94-.66,2.05-.54,3.26,0,2.18.97,3.44,3.12,4.12,5.31,1.47,4.74,1.25,10.76-.58,15.35-.8,2.02-2.93,5.37-5.62,4.59-1.43-.41-2.18-2.3-2.63-3.57-.58-1.63-.91-3.34-1.21-5.03-.34-1.9-3.23-1.09-2.89.8Z"/>
          </g>
        </g>
        <g>
          <path class="cls-1" d="m191.92,179.25c-.27,2.52.64,5.12,0,7.58-.41,1.53-1.38,2.84-2.32,4.14-2.91,4.04-5.61,8.29-7.08,12.99-1.73,5.54-1.66,11.43-1.39,17.2.05,1.07.12,2.16.6,3.12s1.5,1.75,2.61,1.67c1-.07,1.83-.85,2.23-1.74s.44-1.88.47-2.85c.15-5.02,0-10.08.96-15.02.38-1.92.93-3.83,2.01-5.49,2.67-4.11,8.23-6.23,9.91-10.79,1.32-3.58-.18-7.67,1.01-11.29"/>
          <path d="m190.42,179.25c-.15,1.88.25,3.72.23,5.6s-.99,3.46-2.09,5c-2.17,3.03-4.26,6.12-5.84,9.5-3.26,7.02-3.69,14.98-3.04,22.61.14,1.62.52,3.25,1.78,4.38,1.17,1.06,2.82,1.43,4.28.76,3.44-1.58,2.83-6.29,2.88-9.38.07-4.01.12-8.08,1.05-12,.79-3.35,2.55-5.55,5.13-7.71,2.38-2,5.01-3.94,6.29-6.88,1.68-3.86.11-8.04,1.29-11.96.56-1.85-2.34-2.65-2.89-.8-.98,3.27-.05,6.59-.63,9.87-.48,2.7-2.44,4.52-4.45,6.21s-4.21,3.36-5.69,5.64c-1.82,2.82-2.36,6.34-2.71,9.61-.39,3.71-.34,7.45-.45,11.17-.03.97.12,3.41-1.29,3.57-1.65.19-1.61-2.81-1.66-3.76-.33-7.16-.09-14.27,3.18-20.8,1.72-3.43,4.03-6.41,6.12-9.6,1.04-1.6,1.69-3.3,1.75-5.22s-.38-3.87-.23-5.82-2.85-1.91-3,0h0Z"/>
        </g>
        <g>
          <g>
            <path class="cls-1" d="m130.35,154.11c-6.52,12.36-7.58,26.27-8.27,40.17-.64,12.85,1.43,30.61,8.08,42.02,3.58,6.14,10.8,10.74,17.7,9.06,4.63-1.13,8.25-4.81,10.75-8.86,6.58-10.66,6.8-23.93,6.7-36.46-.11-14.56-2.47-33.08-10.66-45.12-2.11-3.1-4.79-5.96-8.24-7.42s-7.78-1.24-10.58,1.25"/>
            <path d="m129.06,153.36c-3.98,7.62-6.05,15.95-7.16,24.43-1.03,7.91-1.62,16.04-1.39,24.03.22,7.51,1.18,15.09,3.16,22.35,1.85,6.78,4.59,14.23,10.22,18.78,2.83,2.28,6.14,3.87,9.79,4.22s7.3-.89,10.22-3.1c6.19-4.68,9.53-12.54,11.17-19.92,1.78-8.01,1.83-16.29,1.75-24.45-.07-7.49-.7-15.01-2.12-22.37s-3.6-14.59-7.39-21.01-9.8-12.49-17.75-10.96c-1.8.34-3.4,1.18-4.78,2.36-1.47,1.25.66,3.37,2.12,2.12,2.55-2.17,6.39-2.14,9.31-.77,3.28,1.54,5.72,4.39,7.65,7.38,3.7,5.73,5.9,12.32,7.38,18.95,1.51,6.77,2.25,13.71,2.49,20.64.26,7.34.28,14.82-.65,22.12-.92,7.18-3.05,14.83-7.8,20.47-2.19,2.6-4.96,4.76-8.37,5.43-3.19.63-6.49-.36-9.21-2.03-5.78-3.57-8.57-10.17-10.5-16.41-2.08-6.72-3.16-13.73-3.57-20.74-.42-7.17,0-14.38.65-21.53.7-7.79,2-15.6,4.83-22.93.73-1.89,1.58-3.73,2.52-5.53s-1.7-3.23-2.59-1.51h0Z"/>
          </g>
          <g>
            <path class="cls-1" d="m142.1,168.87c-1.17-1.24-2.68-2.01-4.31-1.13-.74.4-1.24,1.11-1.65,1.84-2.4,4.31-2.92,10.09-3.48,14.92-.72,6.24-.92,12.81-.88,19.19.03,5.89-.15,12.25,2.27,17.76,1.01,2.31,3.41,4.28,6.05,3.46,3.09-.96,3.59-4.94,4.21-7.61,2.14-9.24,2.61-18.67,2.32-28.12-.21-6.58.35-15.12-4.53-20.3Z"/>
            <path d="m143.16,167.81c-1.49-1.5-3.49-2.45-5.57-1.61s-2.97,2.88-3.74,4.76c-1.69,4.1-2.12,8.6-2.61,12.97-.58,5.13-.87,10.28-.94,15.44s-.22,9.98.39,14.89c.49,3.99,1.4,9.24,5.17,11.48,3.53,2.1,7.24.03,8.67-3.45.63-1.55.92-3.2,1.29-4.82.58-2.58,1.05-5.18,1.4-7.8.7-5.12.99-10.28.99-15.45,0-4.72.03-9.56-.42-14.27-.43-4.42-1.56-8.78-4.63-12.13-1.31-1.43-3.42.7-2.12,2.12,4.56,4.98,3.91,12.65,4.08,18.91.24,8.93-.07,17.88-1.94,26.64-.32,1.52-.62,3.07-1.05,4.56-.34,1.18-.83,2.56-1.96,3.21-3.67,2.1-5.49-4-6.02-6.36-.91-4.04-.85-8.22-.87-12.33-.02-4.47.03-8.94.3-13.41s.68-9.06,1.49-13.49c.39-2.13.91-4.3,1.82-6.27.36-.77.76-1.78,1.51-2.26.99-.64,1.93.1,2.63.81,1.36,1.37,3.49-.75,2.12-2.12Z"/>
          </g>
        </g>
        <g>
          <path class="cls-1" d="m136.39,140.6c-3.33.33-6.96.56-9.95,1.76s-5.42,4.26-2.41,6.42c.99.71,2.31,1.13,3.63,1.47,3.84.98,7.93,1.35,11.9,2.02,22.48,3.8,25.91,25.36,47.34,30.81,1.79.46,3.65.77,5.54.94,5.1.46,10.21-.85,13.69-3.56,2.25-1.75,4.3-4.93,1.76-7.03-2.04-1.69-5.99-1.57-8.8-1.39-4.9.32-9.63.75-14.32-.62-5.9-1.72-9.9-5.44-13.72-8.91-4.47-4.06-8.46-8.4-13.39-12.2-4.68-3.6-9-8.32-16.73-8.41"/>
          <path d="m136.39,139.1c-3.84.37-8.09.5-11.57,2.37-2.69,1.45-5.06,4.78-2.69,7.59,1.21,1.44,3.14,2.11,4.9,2.57,2.01.53,4.07.87,6.12,1.18,3.66.55,7.36.95,10.9,2.09,10.74,3.46,17.24,12.66,25.27,19.93,4.22,3.82,8.95,6.98,14.36,8.85,7.07,2.44,15.56,3.02,22.11-1.16,2.49-1.59,5.46-4.55,4.64-7.83s-4.84-4.12-7.77-4.23c-3.91-.16-7.81.52-11.73.39s-7.93-1.27-11.41-3.43c-2.96-1.84-5.52-4.22-8.07-6.58-3.04-2.8-5.92-5.76-9.01-8.5-2.59-2.3-5.33-4.45-8.06-6.58-2.51-1.95-5.18-3.68-8.26-4.59-1.68-.5-3.43-.73-5.18-.76-1.93-.04-1.93,2.96,0,3,3.1.07,5.97.97,8.6,2.59,2.35,1.44,4.4,3.28,6.55,4.98,5.71,4.5,10.67,9.79,16.12,14.59,2.42,2.14,4.99,4.16,7.9,5.61,3.32,1.66,6.9,2.5,10.6,2.65s7.22-.37,10.85-.4c1.86-.01,7.16.19,5.76,3.33-1.26,2.83-4.83,4.4-7.62,5.15-3.62.98-7.39.79-11.04.02-5.38-1.14-10.33-3.59-14.62-7.02-7.69-6.15-13.39-14.54-21.94-19.65-2.28-1.36-4.72-2.46-7.24-3.27-3.17-1.02-6.46-1.44-9.74-1.92-1.91-.28-3.83-.57-5.72-.98-1.54-.34-3.99-.66-5-2.02-.79-1.06.63-2.22,1.46-2.75,1.46-.93,3.27-1.31,4.95-1.6,1.85-.32,3.72-.46,5.58-.64s1.92-3.19,0-3h0Z"/>
        </g>
      </g>
      <g>
        <path class="cls-1" d="m33.68,90.09c-.25-6.93-.96-20.72-1.21-27.65-.04-1.14-.09-2.31-.57-3.34-.57-1.21-1.67-2.08-2.78-2.82-2.5-1.68-5.24-2.98-7.96-4.28-6.01-2.85-12.02-5.71-18.03-8.56-.67-.32-1.41-.71-1.63-1.42-.19-.59.05-1.23.3-1.8.83-1.84,1.89-3.58,3.15-5.15.47-.59,1.03-1.19,1.77-1.36.77-.17,1.55.17,2.27.5,4.73,2.2,9.43,4.45,14.12,6.73,4.26,2.07,9.01,3.89,12.84,6.71,2.54,1.87,4.62,4.4,5.38,7.5.87,3.53.96,12.09,1.18,15.69.35,5.82.7,11.64,1.05,17.46"/>
        <path d="m35.18,90.09c-.3-8.14-.74-16.27-1.08-24.41-.08-1.9.02-3.91-.37-5.77-.53-2.55-2.52-4.1-4.61-5.42-4.73-2.99-10.05-5.13-15.09-7.53-2.63-1.25-5.26-2.5-7.89-3.75-.68-.32-1.35-.64-2.03-.96-.25-.12-1.11-.38-1.19-.7-.09-.36.39-1.03.55-1.35.32-.65.67-1.28,1.04-1.89.58-.95,1.25-2.19,2.15-2.88s2.88.7,3.79,1.12c2.65,1.25,5.3,2.51,7.95,3.78,4.64,2.23,9.5,4.2,13.96,6.79,3.9,2.26,7.1,5.22,7.8,9.86.64,4.19.6,8.49.79,12.72.28,6.21.74,12.42,1.11,18.63.12,1.92,3.12,1.93,3,0-.36-6.04-.79-12.09-1.09-18.13-.21-4.07-.24-8.15-.69-12.2-.22-1.99-.55-3.89-1.42-5.71-1.03-2.15-2.68-3.99-4.55-5.45-4.27-3.34-9.48-5.25-14.32-7.6-2.79-1.35-5.58-2.69-8.37-4.02-1.33-.63-2.65-1.25-3.98-1.87-1.23-.58-2.5-1.3-3.91-1.12-2.48.31-4.13,3.36-5.24,5.32-1.16,2.07-2.54,4.74-.21,6.53.99.76,2.24,1.2,3.36,1.73,1.5.71,3,1.43,4.51,2.14,2.85,1.36,5.71,2.71,8.56,4.07,2.6,1.24,5.24,2.42,7.77,3.81,2.32,1.27,5.19,2.62,5.45,5.55.43,4.74.41,9.57.64,14.33s.46,9.59.63,14.39c.07,1.92,3.07,1.93,3,0h0Z"/>
      </g>
      <g>
        <g>
          <path class="cls-1" d="m196.84,110.06c-10.61-.96-21.28-1.2-31.93-.72-5.7.26-11.34.99-17.02,1.39-3.66.26-8.12-.37-10.96,2.51-6.52,6.62-3.1,17.75,5.34,20.27,4.01,1.2,8.28.95,12.46.75,11.17-.53,22.36-.62,33.52.05,4.48.27,9.95.17,12.18-3.73.97-1.69,1.05-3.73,1.05-5.68,0-3.71-.2-7.42-.6-11.11-.1-.91-.23-1.87-.83-2.56-.77-.89-2.06-1.07-3.23-1.17Z"/>
          <path d="m196.84,108.56c-13.7-1.23-27.47-1.3-41.17,0-3.17.3-6.35.68-9.54.76-2.55.06-5.17.05-7.56,1.07-4.18,1.79-6.52,6.71-6.54,11.09s1.91,8.37,5.17,11.01c4.51,3.65,10.62,3.6,16.14,3.36,6.87-.31,13.75-.53,20.63-.48,3.45.02,6.9.11,10.35.26,2.78.12,5.58.42,8.36.24,2.53-.17,5.14-.71,7.17-2.33,2.46-1.97,3.09-4.98,3.13-7.98.05-3.75-.15-7.53-.54-11.26-.16-1.56-.33-3.22-1.56-4.35-1.11-1.02-2.61-1.22-4.04-1.36-1.92-.19-1.91,2.81,0,3,1.13.11,2.11.24,2.43,1.46.39,1.46.36,3.13.47,4.63.2,2.89.36,5.83.23,8.73-.11,2.3-.84,4.34-2.96,5.44-1.82.95-4.02,1.08-6.03,1.08-2.54,0-5.09-.23-7.63-.33-3.12-.13-6.24-.2-9.37-.22-6.08-.04-12.17.1-18.25.37-5.06.23-11.1,1.01-15.61-1.83-2.99-1.88-4.93-5.32-5.07-8.84s1.66-8.01,5.36-9.16c2.13-.66,4.42-.51,6.63-.6,2.89-.12,5.77-.46,8.65-.73,13.7-1.29,27.47-1.22,41.17,0,1.92.17,1.91-2.83,0-3Z"/>
        </g>
        <g>
          <path class="cls-1" d="m190.64,118.57c.37,4.35.5,9.38-2.74,12.31-1.58,1.43-3.71,2.08-5.83,2.35"/>
          <path d="m189.14,118.57c.24,2.85.45,5.87-.53,8.61s-3.68,4.17-6.53,4.56c-.8.11-1.5.61-1.5,1.5,0,.73.69,1.61,1.5,1.5,3.81-.51,7.41-2.13,9.05-5.83,1.43-3.24,1.31-6.88,1.02-10.33-.07-.81-.64-1.5-1.5-1.5-.76,0-1.57.69-1.5,1.5h0Z"/>
        </g>
      </g>
      <g>
        <path class="cls-1" d="m43.25,170.52c-18.01,0-13.04-25.14-12.81-35.23.29-12.84.1-25.7-1.41-38.49-.73-6.13-1.5-13.02,3.18-17.76,4.19-4.25,11.38-5.28,17.94-5.72,21.79-1.49,43.68.21,65.52.83,7.74.22,16.27.56,21.9,5.02,5.6,4.44,6.53,11.57,6.4,18.04-.19,10.07-2.06,20.08-2.25,30.14s1.43,20.49,7.63,29.12c1.9,2.64,4.31,5.52,3.43,8.51-1.28,4.36-8.1,5.25-13.46,5.24-29.06-.05-58.13-.11-87.19-.16"/>
        <path d="m43.25,169.02c-3.57-.03-6.97-1.21-9.03-4.27s-2.65-6.57-2.92-10.03c-.64-8.01.62-16.1.72-24.12s-.02-15.65-.54-23.46c-.25-3.7-.61-7.39-1.04-11.08-.35-2.98-.69-6.04-.31-9.03s1.6-5.69,3.91-7.65c2.14-1.82,4.89-2.78,7.58-3.42,3.12-.74,6.32-1.01,9.51-1.21,3.96-.25,7.93-.4,11.89-.48,15.57-.28,31.12.63,46.68,1.18,6.63.24,13.54-.05,20,1.64,2.92.76,5.76,2.01,7.95,4.14s3.35,4.65,4.05,7.45c1.57,6.34.66,13.29.04,19.7-.72,7.4-1.69,14.82-1.51,22.28.15,6.53,1.18,13.09,3.72,19.13,1.33,3.16,3.09,5.98,5.09,8.76,1.49,2.07,3.68,5.08,1.46,7.42-1.57,1.66-4.23,2.17-6.39,2.46-3.22.44-6.53.27-9.77.26-7.81-.01-15.61-.03-23.42-.04-15.78-.03-31.55-.06-47.33-.09-3.82,0-7.64-.01-11.46-.02-1.93,0-1.93,3,0,3,16.61.03,33.21.06,49.82.09,8.14.01,16.28.03,24.41.04,4.15,0,8.3.02,12.46.02,2.9,0,5.86-.14,8.68-.9,2.38-.64,4.89-1.84,6.15-4.08,1.65-2.94.42-6.08-1.31-8.66-1.91-2.84-3.9-5.51-5.32-8.66s-2.38-6.59-2.99-10.02c-2.66-15.04,2-29.99,1.41-45.04-.24-6.05-1.9-12.3-6.82-16.24-5.16-4.14-12.1-4.96-18.5-5.29-7.77-.4-15.56-.55-23.34-.87-8.27-.34-16.55-.65-24.83-.71s-15.87.04-23.76.73c-6.03.53-13,1.62-17.33,6.3s-4.14,11.67-3.43,17.8c.92,7.95,1.43,15.92,1.57,23.92.11,6.26.19,12.58-.25,18.83-.27,3.87-.61,7.74-.61,11.62,0,7.4,1.13,17.05,8.88,20.4,1.97.85,4.09,1.18,6.23,1.19,1.93.01,1.93-2.99,0-3h0Z"/>
      </g>
      <g>
        <path class="cls-1" d="m44.95,159.09c15.21-4.46,31.29-4.62,47.14-4.74,26.01-.21,52.02-.41,78.03-.62,3.05-.02,6.41.07,8.65,2.13,2.41,2.21,2.63,5.87,2.7,9.14.08,4.23.16,8.47.25,12.7.03,1.42.03,2.95-.76,4.13-.73,1.1-2.01,1.69-3.24,2.15-7.4,2.82-15.47,3.21-23.39,3.31-12.12.16-24.24-.28-36.35-.71-21.05-.76-42.09-1.52-63.14-2.28-3.26-.12-6.61-.26-9.57-1.63-6.76-3.14-9.03-13.15-4.28-18.9"/>
        <path d="m45.35,160.53c10.14-2.94,20.65-4.01,31.17-4.41s21.32-.33,31.97-.41,22.2-.18,33.3-.26c5.47-.04,10.93-.09,16.4-.13,2.82-.02,5.63-.04,8.45-.07,2.31-.02,4.67-.17,6.96.09,2.1.24,4.1,1.01,5.18,2.94.97,1.73,1.1,3.85,1.17,5.8.09,2.58.11,5.17.16,7.76s.42,5.29.06,7.81c-.33,2.34-2.86,2.95-4.79,3.57-2.38.77-4.83,1.31-7.3,1.69-5.12.79-10.33.87-15.49.91-22.06.19-44.14-1.08-66.18-1.87-10.97-.4-21.94-.69-32.9-1.19-4.11-.19-8.4-.8-11.08-4.25-1.99-2.56-2.88-6.13-2.28-9.32.29-1.57.9-3.09,1.91-4.35,1.2-1.49-.91-3.63-2.12-2.12-4.65,5.81-3.63,15.08,2.23,19.76,3.94,3.15,9.12,3.21,13.93,3.38,5.88.21,11.77.42,17.65.64,23.45.85,46.92,2.07,70.39,2.32,10.87.12,22.5.63,32.92-2.98,2.05-.71,4.31-1.54,5.41-3.56,1.2-2.21.76-5.08.71-7.49-.06-2.85-.11-5.7-.17-8.55-.04-2.26-.05-4.56-.59-6.76s-1.64-4.08-3.46-5.37-4.12-1.69-6.31-1.82c-5.61-.32-11.31.03-16.93.07-11.76.09-23.52.19-35.29.28-11.64.09-23.29.13-34.93.29-11.03.15-22.12.61-32.96,2.78-2.69.54-5.35,1.19-7.98,1.95-1.85.54-1.06,3.43.8,2.89h0Z"/>
      </g>
      <g>
        <path class="cls-1" d="m42.01,87.25c-1.8,22.38-2.06,44.89-.8,67.31"/>
        <path d="m40.51,87.25c-1.39,17.45-1.87,34.96-1.41,52.46.13,4.95.34,9.9.61,14.85.11,1.92,3.11,1.93,3,0-.98-17.47-1.04-35-.16-52.48.25-4.95.57-9.89.97-14.83.15-1.92-2.85-1.91-3,0h0Z"/>
      </g>
      <g>
        <g>
          <path class="cls-1" d="m79.94,199.23c-5.06,1.48-8.83,5.94-10.71,10.86s-2.15,10.3-2.2,15.57c-.06,6.06.15,12.19,1.76,18.03,1.61,5.84,4.76,11.42,9.64,15s11.66,4.85,17.18,2.34c2.58-1.18,4.78-3.1,6.54-5.32,14.22-17.86,2.39-64.79-20.06-55.85"/>
          <path d="m79.54,197.79c-6.99,2.15-11.28,8.73-12.86,15.57-.93,4.03-1.11,8.19-1.15,12.31s.07,8.51.66,12.73c1.04,7.44,3.9,15.03,9.65,20.12s13.5,6.93,20.35,3.89c9.78-4.34,13.17-16.2,13.6-25.97s-1.48-19.57-6.19-27.86c-3.9-6.88-10.58-12.63-18.96-11.03-1.01.19-1.99.5-2.95.87-1.78.7-1,3.6.8,2.89,3.12-1.22,6.42-1.48,9.53-.18s5.53,3.75,7.4,6.43c4.81,6.9,6.96,15.67,7.36,23.98s-.71,17.1-5.94,23.44c-2.15,2.61-4.89,4.71-8.22,5.5s-6.76.3-9.82-1.01c-6.24-2.67-10.26-8.75-12.23-15.04-2.3-7.36-2.32-15.44-1.93-23.07.35-6.79,1.94-14.31,7.69-18.64,1.21-.91,2.55-1.6,4-2.04,1.84-.57,1.06-3.46-.8-2.89h0Z"/>
        </g>
        <g>
          <path class="cls-1" d="m73.83,234.26c.49,2.73,1.12,5.91,2.83,8.18,2.32,3.08,6.28,1.23,8.07-1.38,2.28-3.33,2.87-7.89,2.93-11.82.08-4.75-1.04-11.38-6.01-13.46-8.99-3.75-8.63,13.96-7.82,18.47Z"/>
          <path d="m72.39,234.66c.58,3.24,1.3,7.32,3.93,9.6,2.4,2.09,5.7,1.32,7.98-.53,2.67-2.17,3.87-5.86,4.41-9.14s.64-6.36.21-9.51c-.68-5.02-3.64-11.35-9.59-11.3-4.23.03-6.05,4.46-6.74,7.98-.82,4.17-.92,8.71-.19,12.91.33,1.9,3.22,1.09,2.89-.8-.15-.87-.26-2.38-.3-3.62-.05-1.68-.02-3.37.13-5.04.22-2.53.74-6.53,2.83-7.99.94-.66,2.05-.54,3.26,0,2.18.97,3.44,3.12,4.12,5.31,1.47,4.74,1.25,10.76-.58,15.35-.8,2.02-2.93,5.37-5.62,4.59-1.43-.41-2.18-2.3-2.63-3.57-.58-1.63-.91-3.34-1.21-5.03-.34-1.9-3.23-1.09-2.89.8Z"/>
        </g>
      </g>
      <g>
        <path class="cls-1" d="m87.19,184.7c-.27,2.52.64,5.12,0,7.58-.41,1.53-1.38,2.84-2.32,4.14-2.91,4.04-5.61,8.29-7.08,12.99-1.73,5.54-1.66,11.43-1.39,17.2.05,1.07.12,2.16.6,3.12s1.5,1.75,2.61,1.67c1-.07,1.83-.85,2.23-1.74s.44-1.88.47-2.85c.15-5.02,0-10.08.96-15.02.38-1.92.93-3.83,2.01-5.49,2.67-4.11,8.23-6.23,9.91-10.79,1.32-3.58-.18-7.67,1.01-11.29"/>
        <path d="m85.69,184.7c-.15,1.88.25,3.72.23,5.6s-.99,3.46-2.09,5c-2.17,3.03-4.26,6.12-5.84,9.5-3.26,7.02-3.69,14.98-3.04,22.61.14,1.62.52,3.25,1.78,4.38,1.17,1.06,2.82,1.43,4.28.76,3.44-1.58,2.83-6.29,2.88-9.38.07-4.01.12-8.08,1.05-12,.79-3.35,2.55-5.55,5.13-7.71,2.38-2,5.01-3.94,6.29-6.88,1.68-3.86.11-8.04,1.29-11.96.56-1.85-2.34-2.65-2.89-.8-.98,3.27-.05,6.59-.63,9.87-.48,2.7-2.44,4.52-4.45,6.21s-4.21,3.36-5.69,5.64c-1.82,2.82-2.36,6.34-2.71,9.61-.39,3.71-.34,7.45-.45,11.17-.03.97.12,3.41-1.29,3.57-1.65.19-1.61-2.81-1.66-3.76-.33-7.16-.09-14.27,3.18-20.8,1.72-3.43,4.03-6.41,6.12-9.6,1.04-1.6,1.69-3.3,1.75-5.22s-.38-3.87-.23-5.82-2.85-1.91-3,0h0Z"/>
      </g>
      <g>
        <g>
          <path class="cls-1" d="m25.63,159.56c-6.52,12.36-7.58,26.27-8.27,40.17-.64,12.85,1.43,30.61,8.08,42.02,3.58,6.14,10.8,10.74,17.7,9.06,4.63-1.13,8.25-4.81,10.75-8.86,6.58-10.66,6.8-23.93,6.7-36.46-.11-14.56-2.47-33.08-10.66-45.12-2.11-3.1-4.79-5.96-8.24-7.42s-7.78-1.24-10.58,1.25"/>
          <path d="m24.33,158.8c-3.98,7.62-6.05,15.95-7.16,24.43-1.03,7.91-1.62,16.04-1.39,24.03.22,7.51,1.18,15.09,3.16,22.35,1.85,6.78,4.59,14.23,10.22,18.78,2.83,2.28,6.14,3.87,9.79,4.22s7.3-.89,10.22-3.1c6.19-4.68,9.53-12.54,11.17-19.92,1.78-8.01,1.83-16.29,1.75-24.45-.07-7.49-.7-15.01-2.12-22.37s-3.6-14.59-7.39-21.01-9.8-12.49-17.75-10.96c-1.8.34-3.4,1.18-4.78,2.36-1.47,1.25.66,3.37,2.12,2.12,2.55-2.17,6.39-2.14,9.31-.77,3.28,1.54,5.72,4.39,7.65,7.38,3.7,5.73,5.9,12.32,7.38,18.95s2.25,13.71,2.49,20.64c.26,7.34.28,14.82-.65,22.12s-3.05,14.83-7.8,20.47c-2.19,2.6-4.96,4.76-8.37,5.43-3.19.63-6.49-.36-9.21-2.03-5.78-3.57-8.57-10.17-10.5-16.41-2.08-6.72-3.16-13.73-3.57-20.74s0-14.38.65-21.53c.7-7.79,2-15.6,4.83-22.93.73-1.89,1.58-3.73,2.52-5.53s-1.7-3.23-2.59-1.51h0Z"/>
        </g>
        <g>
          <path class="cls-1" d="m37.38,174.32c-1.17-1.24-2.68-2.01-4.31-1.13-.74.4-1.24,1.11-1.65,1.84-2.4,4.31-2.92,10.09-3.48,14.92-.72,6.24-.92,12.81-.88,19.19.03,5.89-.15,12.25,2.27,17.76,1.01,2.31,3.41,4.28,6.05,3.46,3.09-.96,3.59-4.94,4.21-7.61,2.14-9.24,2.61-18.67,2.32-28.12-.21-6.58.35-15.12-4.53-20.3Z"/>
          <path d="m38.44,173.26c-1.49-1.5-3.49-2.45-5.57-1.61s-2.97,2.88-3.74,4.76c-1.69,4.1-2.12,8.6-2.61,12.97-.58,5.13-.87,10.28-.94,15.44s-.22,9.98.39,14.89c.49,3.99,1.4,9.24,5.17,11.48,3.53,2.1,7.24.03,8.67-3.45.63-1.55.92-3.2,1.29-4.82.58-2.58,1.05-5.18,1.4-7.8.7-5.12.99-10.28.99-15.45,0-4.72.03-9.56-.42-14.27-.43-4.42-1.56-8.78-4.63-12.13-1.31-1.43-3.42.7-2.12,2.12,4.56,4.98,3.91,12.65,4.08,18.91.24,8.93-.07,17.88-1.94,26.64-.32,1.52-.62,3.07-1.05,4.56-.34,1.18-.83,2.56-1.96,3.21-3.67,2.1-5.49-4-6.02-6.36-.91-4.04-.85-8.22-.87-12.33-.02-4.47.03-8.94.3-13.41s.68-9.06,1.49-13.49c.39-2.13.91-4.3,1.82-6.27.36-.77.76-1.78,1.51-2.26.99-.64,1.93.1,2.63.81,1.36,1.37,3.49-.75,2.12-2.12Z"/>
        </g>
      </g>
      <g>
        <path class="cls-1" d="m31.67,146.05c-3.33.33-6.96.56-9.95,1.76s-5.42,4.26-2.41,6.42c.99.71,2.31,1.13,3.63,1.47,3.84.98,7.93,1.35,11.9,2.02,22.48,3.8,25.91,25.36,47.34,30.81,1.79.46,3.65.77,5.54.94,5.1.46,10.21-.85,13.69-3.56,2.25-1.75,4.3-4.93,1.76-7.03-2.04-1.69-5.99-1.57-8.8-1.39-4.9.32-9.63.75-14.32-.62-5.9-1.72-9.9-5.44-13.72-8.91-4.47-4.06-8.46-8.4-13.39-12.2s-9-8.32-16.73-8.41"/>
        <path d="m31.67,144.55c-3.84.37-8.09.5-11.57,2.37-2.69,1.45-5.06,4.78-2.69,7.59,1.21,1.44,3.14,2.11,4.9,2.57,2.01.53,4.07.87,6.12,1.18,3.66.55,7.36.95,10.9,2.09,10.74,3.46,17.24,12.66,25.27,19.93,4.22,3.82,8.95,6.98,14.36,8.85,7.07,2.44,15.56,3.02,22.11-1.16,2.49-1.59,5.46-4.55,4.64-7.83s-4.84-4.12-7.77-4.23c-3.91-.16-7.81.52-11.73.39s-7.93-1.27-11.41-3.43c-2.96-1.84-5.52-4.22-8.07-6.58-3.04-2.8-5.92-5.76-9.01-8.5-2.59-2.3-5.33-4.45-8.06-6.58-2.51-1.95-5.18-3.68-8.26-4.59-1.68-.5-3.43-.73-5.18-.76-1.93-.04-1.93,2.96,0,3,3.1.07,5.97.97,8.6,2.59,2.35,1.44,4.4,3.28,6.55,4.98,5.71,4.5,10.67,9.79,16.12,14.59,2.42,2.14,4.99,4.16,7.9,5.61,3.32,1.66,6.9,2.5,10.6,2.65s7.22-.37,10.85-.4c1.86-.01,7.16.19,5.76,3.33-1.26,2.83-4.83,4.4-7.62,5.15-3.62.98-7.39.79-11.04.02-5.38-1.14-10.33-3.59-14.62-7.02-7.69-6.15-13.39-14.54-21.94-19.65-2.28-1.36-4.72-2.46-7.24-3.27-3.17-1.02-6.46-1.44-9.74-1.92-1.91-.28-3.83-.57-5.72-.98-1.54-.34-3.99-.66-5-2.02-.79-1.06.63-2.22,1.46-2.75,1.46-.93,3.27-1.31,4.95-1.6,1.85-.32,3.72-.46,5.58-.64s1.92-3.19,0-3h0Z"/>
      </g>
      <g>
        <g>
          <g>
            <path class="cls-1" d="m119.29,190.49c.12-8.06.13-16.12.01-24.19l-10.5-.34c-.14,7.61-.27,15.22-.41,22.82"/>
            <path d="m120.79,190.49c.12-8.06.12-16.12.01-24.19-.01-.83-.68-1.47-1.5-1.5-3.5-.11-7-.23-10.5-.34-.82-.03-1.49.71-1.5,1.5-.14,7.61-.27,15.22-.41,22.82-.03,1.93,2.97,1.93,3,0,.14-7.61.27-15.22.41-22.82l-1.5,1.5c3.5.11,7,.23,10.5.34l-1.5-1.5c.11,8.06.11,16.12-.01,24.19-.03,1.93,2.97,1.93,3,0h0Z"/>
          </g>
          <g>
            <path class="cls-1" d="m155.33,184.78c.03-7.48-.47-14.95-1.52-22.36l-11.67.07c.61,7.82.81,15.67.6,23.51"/>
            <path d="m156.83,184.78c.02-7.62-.52-15.21-1.57-22.76-.09-.64-.85-1.1-1.45-1.1-3.89.02-7.78.05-11.67.07-.76,0-1.56.68-1.5,1.5.6,7.82.8,15.67.6,23.51-.05,1.93,2.95,1.93,3,0,.2-7.84,0-15.69-.6-23.51l-1.5,1.5c3.89-.02,7.78-.05,11.67-.07l-1.45-1.1c1.01,7.27,1.48,14.62,1.46,21.96,0,1.93,2.99,1.93,3,0h0Z"/>
          </g>
          <g>
            <path class="cls-1" d="m141.85,182.36c-2,2.64-3.57,5.69-4.03,8.97s.31,6.82,2.5,9.3c2.82,3.2,7.38,4.14,11.63,4.51,4.39.38,8.81.32,13.21.17,3.23-.11,6.58-.31,9.42-1.84,5.56-3,7.46-10.61,5.31-16.55-2.06-5.67-8.1-10.2-13.98-8.87-1.94.44-3.69,1.45-5.54,2.18-5.46,2.16-11.55,1.84-17.41,1.48"/>
            <path d="m140.56,181.6c-2.48,3.33-4.35,7.29-4.36,11.52s1.7,7.91,5.01,10.3,7.19,2.93,10.98,3.24c4.86.4,9.79.35,14.66.08,3.99-.22,8.04-.99,11.03-3.84,2.49-2.37,3.85-5.68,4.26-9.05.86-7.25-3.51-14.76-10.61-16.99-1.94-.61-4.04-.7-6.02-.25-2.46.55-4.63,1.95-7.03,2.7-5.01,1.56-10.36,1.22-15.53.9-1.93-.12-1.92,2.88,0,3,3.99.24,8,.45,11.97-.08,2-.27,3.96-.71,5.84-1.45,1.71-.67,3.34-1.6,5.13-2.08,6.44-1.73,12.39,4.45,13.24,10.43.4,2.84-.09,5.88-1.52,8.37-1.65,2.88-4.36,4.41-7.58,5-4.03.73-8.38.57-12.46.51-3.73-.06-7.62-.16-11.21-1.29-3.77-1.18-6.52-3.9-7.07-7.91-.58-4.25,1.38-8.27,3.85-11.59,1.15-1.55-1.45-3.05-2.59-1.51h0Z"/>
          </g>
          <g>
            <path class="cls-1" d="m108.08,184.29c-2.41,2.27-4.47,5.01-5.48,8.17s-.84,6.78.9,9.59c2.25,3.62,6.58,5.32,10.71,6.39,4.27,1.11,8.63,1.8,13,2.38,3.2.43,6.54.8,9.6-.24,5.98-2.02,9.14-9.21,8.01-15.42-1.08-5.94-6.27-11.42-12.3-11.09-1.99.11-3.89.81-5.83,1.22-5.75,1.21-11.69-.13-17.41-1.46"/>
            <path d="m107.02,183.23c-2.98,2.85-5.57,6.43-6.29,10.57-.68,3.92.18,7.97,2.96,10.92s6.47,4.22,10.12,5.17c4.54,1.18,9.2,1.89,13.85,2.5,4.14.54,8.59.73,12.25-1.64,2.87-1.86,4.86-4.82,5.88-8.06,2.14-6.84-.57-14.84-6.89-18.49-1.72-.99-3.69-1.59-5.68-1.63-2.46-.05-4.79.86-7.17,1.33-5.46,1.08-11.07-.27-16.38-1.51-1.88-.44-2.68,2.45-.8,2.89,4.07.95,8.21,1.89,12.41,1.98,2.02.04,4.05-.13,6.03-.57s3.77-1.13,5.74-1.13c6.4,0,10.72,6.91,10.48,12.76-.11,2.79-1.1,5.65-2.9,7.81-2.25,2.69-5.35,3.69-8.8,3.62-4.05-.08-8.18-.87-12.15-1.63-3.58-.68-7.35-1.42-10.6-3.13-3.52-1.85-5.72-4.94-5.59-9.01s2.7-7.82,5.65-10.64c1.4-1.34-.73-3.46-2.12-2.12h0Z"/>
          </g>
        </g>
        <g>
          <path class="cls-1" d="m80.37,123.62c-3.52-1.77-7.04-3.53-10.56-5.3-3.81-1.91-7.64-3.84-11.04-6.42-.8-.61-1.63-1.36-1.71-2.36-.07-.83.41-1.59.86-2.29l4.93-7.53-7.51-6.24c-2.24,2.15-4.33,4.45-6.27,6.87-2.96,3.71-5.67,8.56-3.98,12.99,1.14,2.97,3.98,4.9,6.77,6.42,6.07,3.3,13.81,8.39,20.36,10.61"/>
          <path d="m81.12,122.32c-5.62-2.82-11.38-5.46-16.83-8.6-1.25-.72-2.48-1.48-3.66-2.31-.56-.4-1.22-.8-1.67-1.32-.55-.64-.37-1.05.03-1.73,1.57-2.7,3.44-5.27,5.16-7.88.33-.51.25-1.41-.23-1.82-2.5-2.08-5.01-4.16-7.51-6.24-.63-.52-1.49-.61-2.12,0-2.99,2.9-5.92,6.03-8.22,9.52-2.05,3.11-3.56,6.88-2.75,10.65s3.76,6.11,6.8,7.9c3.27,1.92,6.59,3.77,9.88,5.64,3.81,2.16,7.7,4.25,11.84,5.68,1.83.63,2.61-2.26.8-2.89-4.17-1.44-8.06-3.62-11.87-5.81-1.93-1.1-3.85-2.23-5.78-3.34-1.78-1.01-3.65-1.92-5.3-3.14s-3.05-2.8-3.47-4.84.23-4.29,1.18-6.16c2.14-4.22,5.65-7.83,9.02-11.09h-2.12c2.5,2.08,5.01,4.16,7.51,6.24l-.23-1.82-2.98,4.56c-.92,1.41-2.12,2.84-2.72,4.42-1.27,3.34,2.23,5.42,4.6,6.95,6.02,3.9,12.76,6.81,19.16,10.02,1.72.86,3.24-1.72,1.51-2.59h0Z"/>
        </g>
        <g>
          <path class="cls-1" d="m173.9,98.78c.07-1.39.9-2.65,1.92-3.6,3.26-3.04,8.65-3.35,12.38-.91,4.92,3.23,6.11,13.46.29,17.11-4.44,2.78-10.66,2.35-13.78-.47l-4.56-2.64-2.64-3.41.62-3.16,5.77-2.92Z"/>
          <path d="m175.4,98.78c.22-2.31,2.93-3.85,4.94-4.36s4.43-.31,6.34.7c3.14,1.66,4.37,5.52,4.2,8.88-.08,1.67-.58,3.4-1.63,4.73-1.3,1.65-3.43,2.48-5.44,2.86-2.15.4-4.62.22-6.59-.78-1.16-.59-2.19-1.44-3.32-2.1l-2.21-1.28c-.18-.11-.49-.37-.7-.41-.12-.02.27.38.1.03-.3-.63-.96-1.24-1.39-1.8l-1.13-1.46.39,1.46.62-3.16-.69.9c1.92-.97,3.85-1.95,5.77-2.92,1.72-.87.21-3.46-1.51-2.59-1.61.82-3.22,1.63-4.83,2.45-.74.38-1.41.61-1.65,1.51s-.39,1.9-.56,2.84c-.19,1.09.38,1.69,1,2.48s1.2,1.71,1.9,2.45c.44.47,1.08.75,1.64,1.07l2.86,1.66c.83.48,1.58,1.18,2.72,1.69,1.64.73,3.41,1.09,5.2,1.13,3.44.08,7.4-1.04,9.76-3.68,3.89-4.35,3.45-11.69-.06-16.12-2.26-2.86-6.16-4.14-9.72-3.76-4.11.44-8.58,3.1-8.99,7.57-.18,1.92,2.82,1.91,3,0Z"/>
        </g>
        <g>
          <path class="cls-1" d="m173.9,98.78c-10.99.43-14.51.68-25.48-.2-1.28-.1-2.58-.22-3.76-.73-3.21-1.39-4.61-5.23-7.43-7.3l-6.76,9.54,7.78,6.95c1.13,1.01,2.28,2.04,3.67,2.64,1.8.79,3.83.81,5.79.82,11.28.04,14.91-.36,26.18-.32"/>
          <path d="m173.9,97.28c-6.42.25-12.83.55-19.25.22-1.83-.1-3.67-.22-5.5-.37s-3.54-.22-5-1.32c-2.41-1.82-3.74-4.72-6.16-6.57-.68-.52-1.63-.06-2.05.54-2.25,3.18-4.51,6.36-6.76,9.54-.36.51-.23,1.4.23,1.82l5.56,4.97c1.55,1.38,3.05,2.89,4.77,4.06,3.54,2.41,8.24,1.85,12.3,1.82,7.29-.05,14.57-.34,21.86-.32,1.93,0,1.93-2.99,0-3-6.88-.02-13.76.23-20.64.31-1.99.02-3.97.03-5.96.02s-3.97-.11-5.7-1.19-3.31-2.75-4.87-4.14l-5.19-4.63.23,1.82c2.25-3.18,4.51-6.36,6.76-9.54l-2.05.54c2.45,1.87,3.7,4.88,6.27,6.65,1.57,1.08,3.39,1.38,5.25,1.55,1.96.18,3.92.31,5.88.42,6.68.38,13.34.09,20.02-.18,1.92-.08,1.93-3.08,0-3h0Z"/>
        </g>
        <g>
          <path class="cls-1" d="m121.01,80.35c6.63-1.83,14.18.23,18.97,5.17.62.64,1.21,1.34,1.48,2.19.44,1.37-.01,2.86-.6,4.17-2.01,4.45-5.55,8.01-9.01,11.46-.61.61-1.3,1.25-2.16,1.27-.7.02-1.33-.39-1.89-.81-5.66-4.29-8.28-11.39-10.62-18.1"/>
          <path d="m121.41,81.8c3.75-.99,7.68-.72,11.3.67,1.74.67,3.43,1.65,4.86,2.85.7.59,1.43,1.23,1.97,1.97.79,1.07.63,2.19.19,3.38-1.47,3.95-4.61,7.22-7.51,10.16-.65.66-1.33,1.59-2.13,2.06-.85.5-1.76-.54-2.39-1.1-1.42-1.27-2.64-2.73-3.67-4.32-2.43-3.75-3.95-7.98-5.41-12.17-.63-1.81-3.53-1.03-2.89.8,1.59,4.54,3.23,9.17,5.92,13.2,1.34,2,2.91,3.84,4.79,5.34.86.68,1.77,1.36,2.9,1.45,1.31.1,2.37-.57,3.3-1.43,3.68-3.41,7.42-7.41,9.51-12.02,1.17-2.59,1.41-5.16-.47-7.47-1.47-1.79-3.44-3.27-5.47-4.36-4.75-2.57-10.37-3.28-15.59-1.9-1.86.49-1.07,3.39.8,2.89h0Z"/>
        </g>
        <g>
          <path class="cls-1" d="m71.64,79.79c-7.45-1.34-15.36,1.29-19.86,6.62-.58.69-1.12,1.44-1.3,2.31-.29,1.41.42,2.88,1.24,4.16,2.81,4.33,7.15,7.64,11.39,10.86.74.56,1.59,1.16,2.52,1.12.76-.03,1.39-.49,1.94-.96,5.54-4.74,7.39-12.09,8.98-19.01"/>
          <path d="m72.04,78.35c-4.98-.85-10.06-.23-14.64,1.94-3.78,1.79-9.68,5.89-8.22,10.77.75,2.52,2.73,4.78,4.5,6.65,1.93,2.03,4.1,3.8,6.31,5.51,1.94,1.5,4.27,3.92,6.94,2.85,2.17-.87,3.95-3.23,5.24-5.1,3.21-4.64,4.58-10.27,5.83-15.69.43-1.88-2.46-2.68-2.89-.8-.92,3.97-1.85,8.02-3.63,11.7-.88,1.81-1.94,3.54-3.3,5.04-.61.67-1.3,1.47-2.09,1.92-1.01.58-2.13-.64-2.9-1.23-3.61-2.75-7.36-5.65-9.93-9.45-.56-.83-1.19-1.76-1.31-2.78-.13-1.11.67-1.99,1.37-2.75,1.32-1.44,2.88-2.62,4.6-3.55,4.02-2.18,8.82-2.92,13.32-2.15,1.89.32,2.7-2.57.8-2.89h0Z"/>
        </g>
        <g>
          <path class="cls-1" d="m116.73,136.57c5.73-4.07,13.6-3.38,20.22-2.92,7.5.53,16.75,1.7,22.67,6.83,4.3,3.73,4.91,9.99,4.82,15.35-.05,3.21.28,10.67-2.22,13.06-1.18,1.13-3.09,1.16-4.63,1.16-5.43,0-10.86,0-16.29,0-2.25,0-4.55,0-6.68-.75s-4.07-2.38-4.56-4.58"/>
          <path d="m117.48,137.86c5.8-4.01,13.34-3.17,19.99-2.67s13.68,1.35,19.32,5.05c2.79,1.83,4.53,4.32,5.38,7.54.78,2.98.76,6.02.75,9.07,0,2.63.05,5.33-.48,7.92-.21,1-.46,2.24-1.21,2.99-1.05,1.05-3.03.79-4.39.79-4.94,0-9.87,0-14.81,0-3.59,0-9.38.21-10.54-4.23-.49-1.87-3.38-1.08-2.89.8,1.06,4.04,5.02,5.87,8.85,6.29,2.41.26,4.87.14,7.29.14s4.94,0,7.4,0c2.26,0,4.56.11,6.81-.03,1.79-.12,3.56-.59,4.72-2.04,1.88-2.34,2.05-5.86,2.18-8.73.28-6.5.64-14.18-3.58-19.59-4.73-6.07-13.6-7.78-20.79-8.6-4.24-.48-8.58-.84-12.85-.76s-8.97.9-12.69,3.47c-1.58,1.09-.08,3.69,1.51,2.59h0Z"/>
        </g>
        <g>
          <path class="cls-1" d="m80.85,154.82c4.75-.65,10.54-1.16,14.71,1.74,3.15,2.19,4,5.19,3.59,8.83-.21,1.92-.12,4.22,1.49,5.29.69.46,1.54.59,2.36.7,6.36.88,12.78,1.23,19.19,1.7,1.93.14,3.94.27,5.74-.45,2.58-1.03,3.05-3.32,3.32-5.79.98-9.24,3.79-23.73-7.08-28.39-8.38-3.6-17.73-4.7-26.79-4.41-4.33.14-9.27.27-13.45,1.53-3.99,1.2-5.77,5.35-6.28,9.25-.44,3.32-.18,6.72-.8,10.02"/>
          <path d="m81.25,156.26c4.91-.66,12.03-1.37,15.31,3.32,1.49,2.12,1.09,4.43,1.01,6.85-.09,2.74.94,5.4,3.8,6.18,1.46.4,3.07.48,4.57.65,1.8.21,3.6.38,5.41.53,3.45.29,6.9.51,10.35.76,2.96.21,6.39.43,8.75-1.74,1.75-1.61,2.08-3.99,2.33-6.22.86-7.81,2.77-17.4-1.88-24.43-2.87-4.34-7.86-6.04-12.67-7.37-6.18-1.72-12.66-2.36-19.06-2.29-3.52.04-7.07.15-10.56.6-3.05.4-6.31.9-8.64,3.08-5.05,4.72-3.5,12.17-4.57,18.25-.33,1.89,2.56,2.7,2.89.8.9-5.15-.4-11.54,2.94-15.99,1.57-2.09,4.01-2.58,6.45-2.99,2.85-.48,5.75-.58,8.63-.67,5.91-.2,11.82.04,17.62,1.26,2.92.61,5.81,1.45,8.58,2.55,1.91.76,3.63,1.72,5.01,3.28,2.43,2.76,3.11,6.65,3.24,10.21.15,3.97-.34,7.92-.8,11.86-.2,1.72-.12,3.95-1.17,5.42-1.59,2.22-5.3,1.53-7.61,1.36-3.29-.23-6.58-.44-9.86-.72-1.56-.13-3.12-.28-4.67-.45s-3.51-.1-4.9-.74c-1.18-.55-1.24-2.02-1.2-3.16.04-1.32.25-2.59.11-3.91-.28-2.58-1.42-4.9-3.44-6.56-4.7-3.88-11.14-3.35-16.79-2.59-.81.11-1.23,1.14-1.05,1.85.23.87,1.05,1.16,1.85,1.05h0Z"/>
        </g>
        <g>
          <g>
            <path class="cls-1" d="m69.91,77.97c-3.61,21.02-2.19,41.68-2.27,62.83-.01,3.47.02,7.12,1.76,10.12s5.82,4.93,8.79,3.14c3.31-2,3.14-6.77,4.7-10.31,2.28-5.17,8.4-7.52,14.03-7.94,5.63-.42,11.35.55,16.92-.38,2.98-.5,5.85-1.53,8.85-1.94,5.08-.7,10.29.43,15.34-.44.66-.11,1.34-.27,1.88-.68,1.29-.96,1.31-2.88.92-4.44-1.09-4.39-4.21-7.77-6.88-11.27s-3.49-7.56-5.02-11.83c-3.74-10.44-6.61-21.2-8.55-32.13"/>
            <path d="m68.47,77.57c-2.78,16.37-2.62,32.97-2.42,49.52.05,4.16.1,8.32.09,12.48,0,3.56-.14,7.29,1.26,10.64,1.16,2.79,3.49,5.11,6.49,5.82s5.75-.46,7.39-2.97,1.77-5.46,2.76-8.13,3.26-4.64,5.85-5.86c6.74-3.18,14.43-1.26,21.57-1.84,4.08-.33,7.89-1.87,11.94-2.32s7.92.15,11.88-.06c1.75-.09,3.91-.16,5.41-1.18,1.27-.86,1.81-2.33,1.87-3.81.14-3.26-1.79-6.57-3.61-9.14-2.02-2.85-4.48-5.37-5.9-8.6s-2.42-6.94-3.59-10.37c-2.62-7.65-4.77-15.45-6.43-23.36-.42-2.02-.81-4.04-1.17-6.07-.34-1.9-3.23-1.09-2.89.8,1.36,7.65,3.17,15.21,5.42,22.65,1.09,3.6,2.36,7.14,3.56,10.71,1.04,3.11,1.89,6.33,3.55,9.18s4.03,5.16,5.77,7.92c.95,1.51,4.09,6.84,1.18,7.86-1.66.59-3.75.48-5.49.47-1.87-.01-3.73-.12-5.6-.14-3.84-.04-7.38.73-11.09,1.64-4,.98-7.96,1.01-12.05.89-3.49-.1-7-.2-10.45.45-5.49,1.04-10.73,4.07-12.67,9.55-.85,2.41-.96,5.44-2.57,7.51-1.72,2.21-4.7,1.56-6.55-.11-2.43-2.18-2.74-5.74-2.81-8.8-.08-3.8-.01-7.61-.05-11.41-.18-17.73-.72-35.57,2.26-53.12.32-1.89-2.57-2.7-2.89-.8h0Z"/>
          </g>
          <g>
            <g>
              <path class="cls-1" d="m101.91,1.55c9.19-.1,18.45-.2,27.5,1.44,3.67.66,7.32,1.63,10.6,3.41,7.06,3.83,11.74,11.08,14.77,18.61,3.14,7.83,4.81,16.26,4.88,24.72"/>
              <path d="m101.91,3.05c6.13-.07,12.27-.14,18.39.31,5.66.42,11.62,1.11,16.89,3.33,9.66,4.07,14.94,14.19,17.92,23.69,1.96,6.27,2.97,12.77,3.05,19.33.02,1.93,3.02,1.93,3,0-.14-11.56-2.95-23.72-9.17-33.58-2.75-4.36-6.35-8.31-10.88-10.85-5.29-2.97-11.49-3.98-17.44-4.62C116.44-.11,109.16-.03,101.91.05c-1.93.02-1.93,3.02,0,3h0Z"/>
            </g>
            <g>
              <path class="cls-1" d="m50.8,53.19c-2.91-3.52-7.34-5.68-11.86-5.79-1.88-.04-3.95.35-5.13,1.85-1.35,1.73-1.01,4.25-.24,6.32,2.97,8.07,11.59,13.59,20.03,12.83"/>
              <path d="m51.87,52.13c-2.55-3.02-6.17-5.18-10.06-5.91-3.48-.65-8.16-.5-9.84,3.24-1.55,3.46.29,7.69,2.21,10.64s4.64,5.47,7.76,7.19c3.55,1.96,7.62,2.94,11.67,2.61,1.91-.16,1.93-3.16,0-3-5.87.48-11.59-2.06-15.44-6.47-1.8-2.06-3.51-4.89-3.74-7.67-.12-1.47.31-2.85,1.76-3.45,1.29-.54,2.85-.48,4.21-.3,3.67.49,6.98,2.43,9.35,5.24,1.25,1.48,3.36-.66,2.12-2.12h0Z"/>
            </g>
            <g>
              <path class="cls-1" d="m142.99,50.75c3.78-3.67,9.76-4.29,14.7-2.53,1.96.7,3.96,1.91,4.63,3.9.52,1.53.15,3.22-.46,4.71-1.51,3.71-4.5,6.73-8.05,8.51-3.55,1.78-7.62,2.36-11.56,1.93"/>
              <path d="m144.05,51.81c3.86-3.65,10.79-4.11,15.21-1.16,2.84,1.89,1.68,5.2.19,7.62s-3.71,4.4-6.26,5.71c-3.37,1.73-7.21,2.17-10.94,1.8-.81-.08-1.5.75-1.5,1.5,0,.88.69,1.42,1.5,1.5,7.66.77,15.68-2.24,19.79-8.99,1.95-3.2,3.11-7.47.24-10.5-2.35-2.48-6.27-3.4-9.56-3.5-3.96-.13-7.9,1.17-10.79,3.91-1.41,1.33.72,3.45,2.12,2.12h0Z"/>
            </g>
            <g>
              <path class="cls-1" d="m52.19,49.34c.02,5.04.05,10.15,1.38,15s4.13,9.51,8.49,11.92c2.69,1.49,5.77,2.04,8.81,2.42,7.7.97,15.49.98,23.25.99,12.51.02,25.07.04,37.43-1.86,2.29-.35,4.68-.82,6.49-2.29,1.96-1.59,2.93-4.11,3.6-6.57,1.99-7.38,1.93-15.15,1.87-22.8"/>
              <path d="m50.69,49.34c.04,8.67.33,18.23,6.55,24.99,2.88,3.13,6.71,4.74,10.84,5.45,4.82.83,9.75,1.11,14.64,1.26,9.95.31,19.98.29,29.93-.07,5.03-.18,10.05-.51,15.05-1.13,4.09-.5,9.07-.72,12.1-3.9,3.26-3.41,4.02-8.93,4.6-13.4.7-5.43.66-10.92.61-16.39-.02-1.93-3.02-1.93-3,0,.04,4.46.08,8.92-.29,13.37-.34,4.03-.83,8.62-2.68,12.28-.85,1.69-2.08,2.96-3.87,3.64-1.97.74-4.15.96-6.22,1.24-4.6.61-9.23.97-13.86,1.19-9.24.43-18.51.38-27.76.26-4.61-.06-9.22-.21-13.81-.66-4.1-.4-8.51-.86-11.97-3.3-7.74-5.47-7.83-16.37-7.86-24.84,0-1.93-3.01-1.93-3,0h0Z"/>
            </g>
            <g>
              <path class="cls-1" d="m87.68,67.67c.72.53,1.66.65,2.54.74,6.09.61,12.23.65,18.33.13"/>
              <path d="m86.92,68.96c1.45.93,3.26.95,4.93,1.09,1.83.15,3.66.25,5.5.31,3.74.1,7.48-.01,11.2-.32,1.91-.16,1.93-3.16,0-3-3.46.29-6.92.41-10.39.34-1.7-.03-3.4-.11-5.09-.23-1.44-.1-3.37.03-4.63-.78-1.63-1.05-3.13,1.55-1.51,2.59h0Z"/>
            </g>
            <g>
              <path class="cls-1" d="m95.81,41.53c2.82.13,5.64.27,8.45.4,1.27.06,2.68.18,3.55,1.13.57.62.79,1.49.84,2.33.12,2.03-.65,4-1.56,5.8-1.56,3.05-3.6,5.85-6.03,8.24"/>
              <path d="m95.81,43.03c2.7.13,5.4.26,8.1.39.81.04,1.86-.01,2.57.47.79.53.74,1.8.65,2.63-.24,2.28-1.53,4.46-2.72,6.37-1.25,2.01-2.74,3.83-4.42,5.5-1.37,1.36.75,3.48,2.12,2.12,2-1.99,3.76-4.22,5.21-6.64s2.94-5.34,2.83-8.3c-.05-1.37-.44-2.76-1.46-3.73-.96-.91-2.26-1.2-3.53-1.33-3.09-.32-6.25-.32-9.36-.47-1.93-.09-1.93,2.91,0,3h0Z"/>
            </g>
            <g>
              <path class="cls-1" d="m114.31,45.59c-1.24,1.53-1.3,3.77-.73,5.67.72,2.39,2.61,3.77,5.13,3.86,3.34.13,7.31-1.84,7.3-5.63,0-1.94-1.28-3.74-2.97-4.64s-3.73-.98-5.58-.52"/>
              <path d="m113.25,44.52c-1.89,2.44-1.95,5.9-.51,8.6,1.29,2.4,3.92,3.59,6.57,3.5,2.38-.08,4.95-.98,6.55-2.82,1.85-2.13,2.18-5.19.69-7.62-2-3.26-5.96-4.12-9.49-3.29-.79.19-1.26,1.09-1.05,1.85.22.81,1.05,1.23,1.85,1.05,2.06-.49,4.32-.19,5.74,1.42.55.63.9,1.5.91,2.3,0,.49,0,.53-.15,1.03-.09.31-.21.57-.5.99-.73,1.07-2.39,1.83-3.83,2.05-1.6.24-3.26-.09-4.3-1.33-.13-.15-.48-.75-.56-.96-.19-.48-.34-1.06-.39-1.54-.13-1.04-.05-2.26.6-3.09.5-.64.62-1.5,0-2.12-.52-.52-1.62-.64-2.12,0h0Z"/>
            </g>
            <g>
              <path class="cls-1" d="m74.67,43.19c-2.1.97-2.99,3.82-2.12,5.99s3.19,3.54,5.49,3.62c2.43.08,4.91-1.25,6.05-3.44s.76-5.14-1.02-6.82-4.86-1.8-6.63-.11"/>
              <path d="m73.92,41.9c-2.6,1.27-3.76,4.63-2.93,7.33.91,2.99,3.87,4.9,6.9,5.07s6.12-1.5,7.51-4.17,1.06-6.16-1.02-8.41c-2.32-2.52-6.48-2.62-8.98-.34-.6.55-.55,1.57,0,2.12.6.6,1.52.55,2.12,0,1.12-1.03,3.18-1.02,4.33-.05.77.64,1.11,1.32,1.32,2.32.07.33.1.73.07,1.24-.02.4-.11.84-.32,1.37.06-.17-.04.08-.04.09-.06.13-.13.25-.2.37s-.3.47-.3.47c-.31.4-.77.82-1.07,1.02-.38.26-.86.51-1.15.62-.47.17-1.11.33-1.43.34-1.89.08-3.71-.63-4.63-2.33-.12-.22-.16-.29-.24-.6-.03-.1-.05-.2-.07-.3-.09-.32-.02.1-.04-.21s-.02-.61,0-.92c0,.07-.05.25,0-.06.03-.15.06-.3.1-.45.03-.1.06-.19.09-.29.07-.17.07-.19.01-.07.03-.07.06-.14.1-.2.06-.11.12-.22.18-.33.02-.04.26-.39.11-.19.38-.5.52-.59,1.08-.87.73-.36.93-1.39.54-2.05-.43-.74-1.32-.9-2.05-.54h0Z"/>
            </g>
            <g>
              <path class="cls-1" d="m78.36,45.02c-.18.35-.24.75-.19,1.13.05.36.29.75.64.73.36-.02.54-.47.57-.84.04-.57-.1-1.15-.39-1.65"/>
              <path d="m77.06,44.27c-.15.29-.28.61-.34.93-.04.22-.07.44-.08.66,0,.17.02.33.04.5.05.35.14.66.32.97.19.32.49.65.83.82.3.15.56.23.9.24.1,0,.19-.02.29-.03.11-.02.2-.02.3-.05.5-.16.87-.48,1.15-.91.11-.16.17-.35.24-.53.03-.08.06-.17.07-.26.05-.31.09-.61.07-.93-.05-.72-.23-1.41-.59-2.04-.18-.33-.54-.59-.9-.69s-.84-.05-1.16.15-.6.51-.69.9-.05.8.15,1.16c.06.1.11.2.15.31l-.15-.36c.11.25.18.51.21.78l-.05-.4c.03.22.04.44,0,.65l.05-.4c-.02.12-.05.24-.09.35l.15-.36c-.03.07-.07.13-.11.19l.23-.3s-.07.07-.11.11l.3-.23s-.06.04-.1.06l.36-.15s-.07.02-.11.03l.4-.05s-.08,0-.12,0l.4.05s-.08-.02-.12-.03l.36.15s-.07-.04-.1-.06l.3.23s-.09-.09-.13-.14l.23.3c-.05-.06-.08-.13-.12-.2l.15.36c-.04-.09-.07-.19-.08-.29l.05.4c-.02-.17-.02-.34,0-.52l-.05.4c.03-.17.07-.34.14-.5l-.15.36s.04-.08.05-.12c.18-.36.26-.75.15-1.16-.1-.35-.36-.73-.69-.9-.35-.18-.77-.28-1.16-.15-.36.12-.72.34-.9.69h0Z"/>
            </g>
            <g>
              <path class="cls-1" d="m117.55,47.23c-.14.35-.21.74-.2,1.12,0,.17.03.35.11.5.09.16.24.27.41.34.6.24,1.37-.17,1.51-.81s-.39-1.35-1.03-1.39"/>
              <path d="m116.11,46.83c-.15.38-.21.78-.24,1.19-.01.13-.02.27,0,.4.02.25.03.51.12.74.13.35.27.62.54.89.16.16.36.32.57.41.4.19.83.33,1.28.28s.85-.13,1.24-.37.67-.52.92-.89c.12-.18.19-.39.27-.58.08-.21.1-.47.11-.68.03-.45-.12-.87-.3-1.27-.1-.22-.25-.4-.4-.58-.07-.09-.14-.16-.23-.23-.13-.1-.27-.23-.43-.31s-.33-.15-.49-.21c-.22-.09-.48-.11-.71-.12-.21,0-.4.04-.58.13-.19.06-.35.16-.48.31-.26.26-.46.69-.44,1.06s.14.79.44,1.06l.3.23c.23.14.49.2.76.2.02,0,.04,0,.06,0l-.4-.05c.1.01.19.04.28.08l-.36-.15c.08.04.15.08.23.13l-.3-.23c.09.07.16.14.23.23l-.23-.3c.07.09.12.18.17.28l-.15-.36c.04.1.07.2.09.31l-.05-.4c.01.09.01.18,0,.26l.05-.4c-.01.1-.04.19-.08.28l.15-.36c-.04.08-.08.15-.13.22l.23-.3c-.06.08-.14.15-.22.22l.3-.23c-.09.07-.19.13-.29.17l.36-.15c-.1.04-.19.07-.3.08l.4-.05c-.09.01-.18.01-.28,0l.4.05c-.08-.01-.16-.03-.24-.06l.36.15c-.08-.04-.16-.08-.23-.13l.3.23s-.08-.07-.12-.12l.23.3s-.06-.1-.09-.15l.15.36c-.03-.08-.05-.16-.06-.25l.05.4c-.03-.21-.02-.42.01-.63l-.05.4c.03-.23.09-.45.18-.67.06-.2.07-.4.03-.6,0-.2-.07-.39-.18-.56-.18-.31-.54-.61-.9-.69-.38-.09-.81-.07-1.16.15l-.3.23c-.19.19-.31.41-.39.66h0Z"/>
            </g>
            <g>
              <path class="cls-1" d="m92.84,2.37c-8.55-.48-18.31-1.59-26.55,1.35-7.44,2.65-12.81,8.12-16.25,15.19-4.07,8.37-8.1,16.65-10.9,25.58"/>
              <path d="m92.84.87c-10.21-.59-21.12-1.87-30.58,2.97-3.97,2.04-7.35,5.04-10.03,8.59-3.09,4.1-5.1,8.97-7.27,13.59-2.75,5.88-5.31,11.87-7.27,18.07-.58,1.85,2.31,2.63,2.89.8,1.67-5.28,3.77-10.4,6.07-15.43,2.08-4.55,4.06-9.34,6.79-13.55,2.27-3.51,5.27-6.54,8.87-8.68,4.15-2.46,8.85-3.54,13.63-3.85,5.63-.37,11.27.17,16.89.49,1.93.11,1.92-2.89,0-3h0Z"/>
            </g>
            <g>
              <path class="cls-1" d="m43.25,50.61c3.11-2.69,5.25-6.5,5.96-10.59"/>
              <path d="m44.31,51.67c3.3-2.89,5.58-6.94,6.34-11.25.14-.8-.22-1.62-1.05-1.85-.73-.2-1.7.25-1.85,1.05-.7,3.92-2.59,7.31-5.57,9.93-.61.53-.55,1.58,0,2.12.61.61,1.51.54,2.12,0h0Z"/>
            </g>
            <g>
              <path class="cls-1" d="m49.63,52.09l3.44-3.84c.99-1.11,1.99-2.23,2.8-3.48,1.02-1.6,1.72-3.41,2.04-5.28"/>
              <path d="m50.69,53.15c1.83-2.04,3.76-4.03,5.44-6.2s2.75-4.46,3.21-7.07c.14-.8-.21-1.62-1.05-1.85-.72-.2-1.7.25-1.85,1.05-.4,2.27-1.32,4.35-2.77,6.16-1.6,2.01-3.4,3.87-5.12,5.79-.54.6-.6,1.53,0,2.12.55.55,1.58.61,2.12,0h0Z"/>
            </g>
            <g>
              <path class="cls-1" d="m57.64,50.35c4.94-4.67,8.95-10.36,11.69-16.62"/>
              <path d="m58.7,51.41c5.04-4.79,9.12-10.56,11.93-16.92.33-.74.22-1.61-.54-2.05-.64-.37-1.72-.21-2.05.54-2.71,6.15-6.58,11.69-11.46,16.31-1.4,1.33.72,3.45,2.12,2.12h0Z"/>
            </g>
            <g>
              <path class="cls-1" d="m69.48,41.34c7.38-3.06,13.87-8.3,18.46-14.91"/>
              <path d="m69.88,42.78c7.82-3.27,14.49-8.65,19.36-15.6,1.11-1.58-1.49-3.09-2.59-1.51-4.37,6.24-10.53,11.27-17.57,14.22-.75.31-1.28.99-1.05,1.85.19.7,1.09,1.36,1.85,1.05h0Z"/>
            </g>
            <g>
              <path class="cls-1" d="m86.53,38.41c3.98-.88,7.65-3.18,10.22-6.39"/>
              <path d="m86.93,39.86c4.24-.96,8.15-3.39,10.88-6.78.51-.63.62-1.51,0-2.12-.53-.53-1.61-.63-2.12,0-2.5,3.1-5.74,5.14-9.56,6.01-.79.18-1.26,1.09-1.05,1.85.22.81,1.05,1.23,1.85,1.05h0Z"/>
            </g>
            <g>
              <path class="cls-1" d="m98.24,38.92c3.82-3.02,7.02-6.84,9.36-11.15"/>
              <path d="m99.3,39.98c3.92-3.12,7.19-7.05,9.59-11.46.39-.71.18-1.63-.54-2.05s-1.66-.18-2.05.54c-2.29,4.21-5.37,7.86-9.12,10.85-.63.5-.53,1.59,0,2.12.63.63,1.49.51,2.12,0h0Z"/>
            </g>
            <g>
              <path class="cls-1" d="m108.34,37.84c2.6-2.52,4.47-5.82,5.31-9.37"/>
              <path d="m109.4,38.9c2.79-2.73,4.78-6.24,5.69-10.04.18-.76-.24-1.66-1.05-1.85s-1.65.23-1.85,1.05-.46,1.69-.78,2.5c-.05.12-.09.24-.14.36-.1.24.07-.17-.03.07-.08.19-.17.37-.26.56-.2.42-.41.83-.64,1.23-.43.76-.91,1.49-1.44,2.18-.16.2.11-.14-.05.06-.06.08-.13.16-.19.24-.15.18-.3.35-.45.52-.31.34-.62.67-.95,1-.56.55-.59,1.58,0,2.12s1.52.59,2.12,0h0Z"/>
            </g>
            <g>
              <path class="cls-1" d="m117.84,32.23c-.29,1.98.59,3.93,1.44,5.74.15.33.44.71.77.6"/>
              <path d="m116.39,31.83c-.12.9-.12,1.71.03,2.62.11.7.33,1.39.59,2.05.29.74.61,1.46.95,2.17.46.97,1.4,1.6,2.49,1.34.76-.18,1.29-1.09,1.05-1.85-.26-.8-1.03-1.24-1.85-1.05.28-.06.55-.03.79.09.19.16.23.18.12.07.27.28.1.12.04,0-.12-.23-.22-.47-.33-.71-.06-.14-.13-.28-.19-.43-.03-.07-.06-.14-.09-.21l.06.14c-.12-.26-.22-.54-.32-.82-.18-.51-.33-1.03-.42-1.56,0-.06-.02-.11-.03-.17.03.21.03.23.01.06,0-.13-.02-.26-.02-.4s0-.27,0-.4c0-.08.06-.59,0-.17.06-.42.07-.77-.15-1.16-.18-.31-.54-.61-.9-.69-.7-.16-1.73.22-1.85,1.05h0Z"/>
            </g>
            <g>
              <path class="cls-1" d="m124.13,32.26c.76,3.59,2.63,6.94,5.28,9.44"/>
              <path d="m122.68,32.65c.82,3.83,2.82,7.4,5.66,10.1.57.54,1.56.61,2.12,0s.61-1.54,0-2.12-1.23-1.24-1.77-1.93c.12.15-.06-.08-.09-.13-.06-.08-.12-.17-.18-.25-.12-.17-.24-.34-.35-.51-.26-.39-.5-.78-.72-1.19-.87-1.55-1.38-2.94-1.78-4.77-.17-.77-1.1-1.29-1.85-1.05-.81.26-1.22,1.02-1.05,1.85h0Z"/>
            </g>
            <g>
              <path class="cls-1" d="m130.9,34.07c1.34,5.13,4.96,9.59,9.66,11.91"/>
              <path d="m129.46,34.47c1.46,5.47,5.28,10.27,10.35,12.81.72.36,1.62.19,2.05-.54.39-.67.19-1.69-.54-2.05-4.43-2.22-7.7-6.25-8.97-11.01-.5-1.86-3.39-1.07-2.89.8h0Z"/>
            </g>
            <g>
              <path class="cls-1" d="m142.25,40.57c1.34,2.68,2.84,5.52,5.46,6.9"/>
              <path d="m140.96,41.33c1.43,2.85,3.08,5.87,6,7.44.69.37,1.66.2,2.05-.54s.2-1.66-.54-2.05c-.32-.17-.63-.36-.92-.58-.18-.13-.12-.03.02.02-.07-.02-.14-.12-.2-.16-.14-.12-.28-.25-.42-.38-.25-.24-.48-.49-.71-.76-.11-.13-.23-.26-.33-.41.23.33.02.02-.02-.03-.05-.07-.1-.14-.15-.21-.85-1.21-1.53-2.53-2.19-3.85-.35-.7-1.4-.96-2.05-.54-.72.46-.92,1.3-.54,2.05h0Z"/>
            </g>
            <g>
              <path class="cls-1" d="m148.09,55.68l6.46-.7"/>
              <path d="m148.09,57.18l6.46-.7c.41-.04.76-.14,1.06-.44.26-.26.46-.69.44-1.06-.03-.74-.66-1.59-1.5-1.5l-6.46.7c-.41.04-.76.14-1.06.44-.26.26-.46.69-.44,1.06.03.74.66,1.59,1.5,1.5h0Z"/>
            </g>
            <g>
              <path class="cls-1" d="m151.65,56.09c-.11,1.34-.3,2.67-.58,3.98"/>
              <path d="m150.15,56.09c-.05.57-.11,1.13-.18,1.69l.05-.4c-.1.77-.24,1.53-.4,2.29-.08.4-.06.8.15,1.16.18.31.54.61.9.69.38.09.81.07,1.16-.15.32-.2.61-.51.69-.9.3-1.44.51-2.91.63-4.38.03-.36-.19-.81-.44-1.06s-.69-.46-1.06-.44-.79.14-1.06.44-.41.65-.44,1.06h0Z"/>
            </g>
            <g>
              <path class="cls-1" d="m41.32,55.1c1.67.84,3.48,1.39,5.34,1.6"/>
              <path d="m40.56,56.4c1.93.97,3.95,1.55,6.09,1.81.36.04.82-.2,1.06-.44.26-.26.46-.69.44-1.06s-.14-.79-.44-1.06c-.31-.29-.64-.39-1.06-.44-.1-.01-.19-.02-.29-.04l.4.05c-.86-.12-1.71-.3-2.54-.56-.4-.12-.8-.26-1.18-.42-.06-.02-.12-.05-.18-.07q-.12-.05,0,0c.12.05.12.05,0,0-.06-.03-.12-.05-.18-.08-.21-.09-.41-.19-.61-.29-.7-.35-1.66-.21-2.05.54-.36.68-.21,1.68.54,2.05h0Z"/>
            </g>
            <g>
              <path class="cls-1" d="m44.13,56.98c.13,1.42.42,2.83.87,4.19"/>
              <path d="m42.63,56.98c.14,1.56.43,3.1.93,4.59.12.37.35.7.69.9.32.19.8.27,1.16.15.74-.24,1.31-1.05,1.05-1.85-.37-1.11-.63-2.24-.78-3.4l.05.4c-.03-.26-.06-.53-.09-.79-.04-.41-.14-.76-.44-1.06-.26-.26-.69-.46-1.06-.44s-.79.14-1.06.44c-.25.28-.48.67-.44,1.06h0Z"/>
            </g>
          </g>
        </g>
      </g>
      <g>
        <g>
          <path class="cls-1" d="m77.74,103.6c-.32-4.32-.39-8.65-.21-12.98,0-.12.02-.25.1-.33.09-.08.23-.08.35-.07,1.3.11,2.61.22,3.91.33.27.02.57.05.78.23.29.25.32.68.33,1.06.06,3.59.08,7.18.08,10.76"/>
          <path d="m79.24,103.6c-.16-2.2-.26-4.41-.3-6.62s-.14-4.4.11-6.54l-.2.76.08-.15-.9.69c.27-.11,1.33.1,1.78.14.61.05,1.22.1,1.83.15.89.08-.6-.02-.14-.38-.08.06.02.86.02.98,0,.66.02,1.31.03,1.97.03,2.67.04,5.34.04,8.01,0,1.93,3,1.93,3,0,0-2.23,0-4.46-.02-6.7-.01-1.09-.02-2.19-.04-3.28s0-2.44-1.08-3.14c-.91-.58-2.19-.49-3.23-.58s-2.56-.51-3.48.2-.73,2.29-.76,3.36c-.03,1.15-.04,2.3-.04,3.45.01,2.56.12,5.12.31,7.68.06.81.65,1.5,1.5,1.5.77,0,1.56-.69,1.5-1.5h0Z"/>
        </g>
        <g>
          <path class="cls-1" d="m70.71,111.78c-.08-2.09-.06-4.18.08-6.26.03-.51.09-1.05.43-1.42.42-.46,1.13-.49,1.75-.49,4.58,0,9.15,0,13.73,0,.26,0,.54,0,.75.14.36.23.42.71.45,1.13.17,2.63.21,5.26.12,7.89"/>
          <path d="m72.21,111.78c-.05-1.32-.06-2.64-.03-3.96.02-.6.04-1.21.07-1.81.01-.19.13-.64.06-.8-.08-.18.14-.14-.13-.03.42-.18,1.02-.08,1.46-.08.69,0,1.37,0,2.06,0,1.32,0,2.63,0,3.95,0s2.63,0,3.95,0c.69,0,1.37,0,2.06,0,.24,0,.66.1.86,0,.34.05.28-.11-.17-.46.04.07.06.15.05.22-.07,1.24.13,2.54.16,3.79.02,1.37,0,2.75-.04,4.12-.07,1.93,2.93,1.93,3,0,.06-1.72.07-3.43.01-5.15-.04-1.34.14-3.12-.52-4.33-.84-1.54-2.92-1.19-4.38-1.19-1.66,0-3.32,0-4.98,0s-3.32,0-4.98,0c-1.38,0-3.04-.22-4.21.66-1.27.96-1.2,2.64-1.26,4.07-.07,1.65-.07,3.3,0,4.95.07,1.92,3.07,1.93,3,0h0Z"/>
        </g>
        <g>
          <path class="cls-1" d="m89.94,112.89c-10.61-.96-21.28-1.2-31.93-.72-5.7.26-11.34.99-17.02,1.39-3.66.26-8.12-.37-10.96,2.51-6.52,6.62-3.1,17.75,5.34,20.27,4.01,1.2,8.28.95,12.46.75,11.17-.53,22.36-.62,33.52.05,4.48.27,9.95.17,12.18-3.73.97-1.69,1.05-3.73,1.05-5.68,0-3.71-.2-7.42-.6-11.11-.1-.91-.23-1.87-.83-2.56-.77-.89-2.06-1.07-3.23-1.17Z"/>
          <path d="m89.94,111.39c-13.7-1.23-27.47-1.3-41.17,0-3.17.3-6.35.68-9.54.76-2.55.06-5.17.05-7.56,1.07-4.18,1.79-6.52,6.71-6.54,11.09s1.91,8.37,5.17,11.01c4.51,3.65,10.62,3.6,16.14,3.36,6.87-.31,13.75-.53,20.63-.48,3.45.02,6.9.11,10.35.26,2.78.12,5.58.42,8.36.24,2.53-.17,5.14-.71,7.17-2.33,2.46-1.97,3.09-4.98,3.13-7.98.05-3.75-.15-7.53-.54-11.26-.16-1.56-.33-3.22-1.56-4.35-1.11-1.02-2.61-1.22-4.04-1.36-1.92-.19-1.91,2.81,0,3,1.13.11,2.11.24,2.43,1.46.39,1.46.36,3.13.47,4.63.2,2.89.36,5.83.23,8.73-.11,2.3-.84,4.34-2.96,5.44-1.82.95-4.02,1.08-6.03,1.08-2.54,0-5.09-.23-7.63-.33-3.12-.13-6.24-.2-9.37-.22-6.08-.04-12.17.1-18.25.37-5.06.23-11.1,1.01-15.61-1.83-2.99-1.88-4.93-5.32-5.07-8.84s1.66-8.01,5.36-9.16c2.13-.66,4.42-.51,6.63-.6,2.89-.12,5.77-.46,8.65-.73,13.7-1.29,27.47-1.22,41.17,0,1.92.17,1.91-2.83,0-3Z"/>
        </g>
        <g>
          <path class="cls-1" d="m67.34,136.28l5.41-.36c2.6-.17,5.46-.46,7.27-2.33,1.3-1.35,1.8-3.27,2.11-5.12.54-3.19.69-6.44.43-9.67"/>
          <path d="m67.34,137.78c2.64-.18,5.3-.24,7.92-.6,2.26-.31,4.58-1.04,6.1-2.84,1.65-1.96,2.12-4.52,2.45-6.99.38-2.84.47-5.69.26-8.54-.14-1.91-3.14-1.93-3,0,.18,2.45.16,4.91-.11,7.35-.22,2-.45,4.48-1.75,6.1-1.12,1.4-3.04,1.83-4.74,2.02-2.36.27-4.76.35-7.13.5-1.92.13-1.93,3.13,0,3h0Z"/>
        </g>
      </g>
    </g>
  </g>
</svg>