<svg id="구성_요소_561_31" data-name="구성 요소 561 – 31" xmlns="http://www.w3.org/2000/svg" width="24" height="24" viewBox="0 0 24 24">
  <rect id="사각형_1573" data-name="사각형 1573" width="24" height="24" fill="none"/>
  <g id="그룹_4353" data-name="그룹 4353" transform="translate(-346 -98)">
    <path id="패스_599" data-name="패스 599" d="M57.227,2.095H58.95a2.445,2.445,0,0,0,4.684,0H75.806a.72.72,0,1,0,0-1.44H63.633a2.445,2.445,0,0,0-4.684,0H57.227a.72.72,0,1,0,0,1.44ZM61.291.353A1.022,1.022,0,1,1,60.27,1.375,1.023,1.023,0,0,1,61.291.353Z" transform="translate(291.483 108.547)" fill="#676767"/>
    <path id="패스_600" data-name="패스 600" d="M75.806,7H74.085A2.445,2.445,0,0,0,69.4,7H57.227a.72.72,0,1,0,0,1.44H69.4a2.445,2.445,0,0,0,4.683,0h1.723a.72.72,0,0,0,0-1.44ZM71.742,8.742a1.022,1.022,0,1,1,1.022-1.022A1.022,1.022,0,0,1,71.742,8.742Z" transform="translate(291.483 96.187)" fill="#676767"/>
    <path id="패스_601" data-name="패스 601" d="M75.806,13.348H69.118a2.445,2.445,0,0,0-4.685,0H57.227a.72.72,0,1,0,0,1.44h7.206a2.446,2.446,0,0,0,4.685,0h6.688a.72.72,0,0,0,0-1.44Zm-9.031,1.741A1.022,1.022,0,1,1,67.8,14.068,1.022,1.022,0,0,1,66.775,15.088Z" transform="translate(291.483 102.027)" fill="#676767"/>
  </g>
</svg>
